<?xml version="1.0" encoding="utf-8"?>
<!-- Generator: Adobe Illustrator 16.0.0, SVG Export Plug-In . SVG Version: 6.00 Build 0)  -->
<!DOCTYPE svg PUBLIC "-//W3C//DTD SVG 1.1//EN" "http://www.w3.org/Graphics/SVG/1.1/DTD/svg11.dtd">
<svg version="1.1" id="Layer_1" xmlns="http://www.w3.org/2000/svg" xmlns:xlink="http://www.w3.org/1999/xlink" x="0px" y="0px"
	 width="554px" height="181px" viewBox="0 0 554 181" enable-background="new 0 0 554 181" xml:space="preserve">
<g>
	<g>
		<path d="M62.262,103.631c-0.436-0.167-0.518-0.286-0.518-0.812c0-1.313,0.109-2.747,0.136-3.13
			c0.028-0.357,0.109-0.621,0.327-0.621c0.245,0,0.272,0.215,0.272,0.406c0,0.312,0.109,0.813,0.245,1.22
			c0.6,1.767,2.207,2.411,3.896,2.411c2.452,0,3.65-1.457,3.65-2.723c0-1.172-0.409-2.293-2.67-3.822l-1.252-0.859
			c-2.997-2.054-4.032-3.726-4.032-5.661c0-2.629,2.506-4.515,6.292-4.515c1.771,0,2.915,0.239,3.624,0.406
			c0.245,0.047,0.381,0.118,0.381,0.287c0,0.31-0.109,1.003-0.109,2.866c0,0.525-0.082,0.717-0.299,0.717
			c-0.19,0-0.272-0.144-0.272-0.43c0-0.215-0.136-0.956-0.708-1.577c-0.408-0.455-1.199-1.17-2.969-1.17
			c-2.016,0-3.241,1.026-3.241,2.46c0,1.099,0.626,1.935,2.887,3.439l0.763,0.502c3.269,2.22,4.467,3.821,4.467,6.09
			c0,1.385-0.599,3.035-2.561,4.157c-1.362,0.764-2.887,0.979-4.331,0.979C64.66,104.253,63.433,104.086,62.262,103.631z"/>
		<path d="M95.332,92.787c0-3.631,0-4.3-0.054-5.064c-0.055-0.812-0.272-1.195-1.171-1.362c-0.218-0.048-0.681-0.072-1.063-0.072
			c-0.3,0-0.463-0.046-0.463-0.214c0-0.167,0.19-0.215,0.599-0.215c1.443,0,3.16,0.072,3.977,0.072c0.654,0,2.37-0.072,3.351-0.072
			c0.408,0,0.599,0.048,0.599,0.215c0,0.168-0.164,0.214-0.436,0.214c-0.299,0-0.463,0.024-0.791,0.072
			c-0.735,0.119-0.953,0.527-1.008,1.362c-0.054,0.765-0.054,1.434-0.054,5.064v3.343c0,3.464,0.79,4.921,2.125,5.877
			c1.226,0.884,2.479,0.979,3.405,0.979c1.199,0,2.669-0.334,3.759-1.29c1.498-1.313,1.58-3.464,1.58-5.923v-2.986
			c0-3.631,0-4.3-0.055-5.064c-0.055-0.812-0.272-1.195-1.171-1.362c-0.218-0.048-0.681-0.072-0.981-0.072
			c-0.299,0-0.463-0.046-0.463-0.214c0-0.167,0.191-0.215,0.573-0.215c1.389,0,3.105,0.072,3.132,0.072
			c0.327,0,2.043-0.072,3.105-0.072c0.382,0,0.573,0.048,0.573,0.215c0,0.168-0.164,0.214-0.49,0.214c-0.3,0-0.463,0.024-0.79,0.072
			c-0.736,0.119-0.954,0.527-1.008,1.362c-0.055,0.765-0.055,1.434-0.055,5.064v2.556c0,2.65-0.299,5.47-2.587,7.189
			c-1.934,1.457-3.896,1.721-5.666,1.721c-1.444,0-4.059-0.072-6.047-1.649c-1.39-1.098-2.425-2.865-2.425-6.329V92.787z"/>
		<path d="M138.127,100.67c0.054,1.862,0.408,2.483,0.953,2.65c0.463,0.144,0.981,0.167,1.417,0.167c0.3,0,0.463,0.049,0.463,0.192
			c0,0.19-0.246,0.239-0.626,0.239c-1.771,0-2.861-0.072-3.378-0.072c-0.245,0-1.525,0.072-2.942,0.072
			c-0.354,0-0.6-0.025-0.6-0.239c0-0.144,0.163-0.192,0.436-0.192c0.354,0,0.845-0.023,1.227-0.118
			c0.708-0.191,0.817-0.884,0.844-2.963l0.246-14.141c0-0.478,0.082-0.812,0.354-0.812c0.3,0,0.544,0.311,1.008,0.74
			c0.327,0.311,4.467,4.204,8.444,7.667c1.853,1.624,5.53,5.064,5.993,5.446h0.136l-0.272-10.724
			c-0.027-1.458-0.272-1.912-0.926-2.151c-0.409-0.144-1.063-0.144-1.444-0.144c-0.327,0-0.436-0.07-0.436-0.214
			c0-0.191,0.299-0.215,0.708-0.215c1.417,0,2.724,0.072,3.296,0.072c0.299,0,1.335-0.072,2.67-0.072
			c0.354,0,0.626,0.023,0.626,0.215c0,0.144-0.164,0.214-0.49,0.214c-0.272,0-0.491,0-0.817,0.072
			c-0.763,0.191-0.981,0.694-1.008,2.03l-0.3,15.073c0,0.525-0.109,0.74-0.354,0.74c-0.299,0-0.626-0.262-0.927-0.524
			c-1.716-1.434-5.203-4.563-8.036-7.022c-2.969-2.58-5.993-5.566-6.483-6.021h-0.083L138.127,100.67z"/>
		<path d="M179.287,92.787c0-3.631,0-4.3-0.054-5.064c-0.054-0.812-0.272-1.195-1.171-1.362c-0.218-0.048-0.681-0.072-1.063-0.072
			c-0.299,0-0.463-0.046-0.463-0.214c0-0.167,0.19-0.215,0.599-0.215c1.444,0,3.16,0.072,3.732,0.072
			c0.926,0,2.996-0.072,3.841-0.072c1.716,0,3.541,0.144,5.012,1.028c0.763,0.452,1.853,1.671,1.853,3.271
			c0,1.768-0.845,3.392-3.596,5.351c2.424,2.675,4.304,4.802,5.912,6.281c1.525,1.387,2.642,1.554,3.051,1.626
			c0.3,0.047,0.544,0.07,0.763,0.07c0.218,0,0.326,0.072,0.326,0.192c0,0.19-0.19,0.239-0.517,0.239h-2.588
			c-1.525,0-2.206-0.121-2.915-0.455c-1.171-0.55-2.207-1.673-3.731-3.511c-1.09-1.314-2.343-2.938-2.697-3.296
			c-0.136-0.144-0.3-0.168-0.491-0.168l-2.37-0.048c-0.136,0-0.218,0.048-0.218,0.191v0.334c0,2.222,0,4.108,0.136,5.112
			c0.082,0.692,0.245,1.218,1.063,1.313c0.409,0.049,1.008,0.096,1.335,0.096c0.218,0,0.326,0.072,0.326,0.192
			c0,0.167-0.19,0.239-0.544,0.239c-1.58,0-3.596-0.072-4.004-0.072c-0.518,0-2.233,0.072-3.323,0.072
			c-0.354,0-0.544-0.072-0.544-0.239c0-0.12,0.108-0.192,0.436-0.192c0.408,0,0.735-0.047,0.981-0.096
			c0.544-0.095,0.681-0.62,0.79-1.313c0.136-1.004,0.136-2.891,0.136-5.088V92.787z M182.501,94.673c0,0.263,0.055,0.359,0.245,0.43
			c0.572,0.167,1.389,0.239,2.07,0.239c1.09,0,1.444-0.097,1.934-0.406c0.817-0.525,1.607-1.625,1.607-3.583
			c0-3.392-2.561-4.371-4.168-4.371c-0.681,0-1.171,0.023-1.444,0.095c-0.19,0.047-0.245,0.144-0.245,0.334V94.673z"/>
		<path d="M216.742,92.787c0-3.631,0-4.3-0.055-5.064c-0.054-0.812-0.326-1.218-0.926-1.337c-0.3-0.072-0.654-0.097-0.981-0.097
			c-0.272,0-0.436-0.046-0.436-0.239c0-0.143,0.218-0.19,0.653-0.19c1.036,0,2.751,0.072,3.542,0.072
			c0.681,0,2.288-0.072,3.323-0.072c0.354,0,0.572,0.048,0.572,0.19c0,0.193-0.164,0.239-0.437,0.239s-0.49,0.024-0.817,0.072
			c-0.735,0.119-0.953,0.527-1.008,1.362c-0.055,0.765-0.055,1.434-0.055,5.064v4.204c0,2.316,0,4.204,0.109,5.23
			c0.082,0.645,0.272,1.075,1.09,1.17c0.382,0.049,0.98,0.096,1.39,0.096c0.299,0,0.436,0.072,0.436,0.192
			c0,0.167-0.218,0.239-0.518,0.239c-1.798,0-3.515-0.072-4.249-0.072c-0.627,0-2.343,0.072-3.433,0.072
			c-0.354,0-0.545-0.072-0.545-0.239c0-0.12,0.109-0.192,0.436-0.192c0.409,0,0.736-0.047,0.981-0.096
			c0.545-0.095,0.708-0.501,0.79-1.194c0.136-1.002,0.136-2.89,0.136-5.206V92.787z"/>
		<path d="M244.446,103.631c-0.436-0.167-0.518-0.286-0.518-0.812c0-1.313,0.109-2.747,0.136-3.13
			c0.028-0.357,0.109-0.621,0.327-0.621c0.245,0,0.272,0.215,0.272,0.406c0,0.312,0.109,0.813,0.245,1.22
			c0.6,1.767,2.207,2.411,3.896,2.411c2.452,0,3.65-1.457,3.65-2.723c0-1.172-0.408-2.293-2.67-3.822l-1.253-0.859
			c-2.996-2.054-4.031-3.726-4.031-5.661c0-2.629,2.506-4.515,6.292-4.515c1.771,0,2.916,0.239,3.623,0.406
			c0.246,0.047,0.382,0.118,0.382,0.287c0,0.31-0.109,1.003-0.109,2.866c0,0.525-0.081,0.717-0.299,0.717
			c-0.191,0-0.272-0.144-0.272-0.43c0-0.215-0.137-0.956-0.709-1.577c-0.408-0.455-1.198-1.17-2.969-1.17
			c-2.016,0-3.241,1.026-3.241,2.46c0,1.099,0.626,1.935,2.887,3.439l0.763,0.502c3.27,2.22,4.468,3.821,4.468,6.09
			c0,1.385-0.6,3.035-2.561,4.157c-1.362,0.764-2.888,0.979-4.331,0.979C246.843,104.253,245.617,104.086,244.446,103.631z"/>
		<path d="M278.687,92.787c0-3.631,0-4.3-0.054-5.064c-0.056-0.812-0.272-1.195-1.172-1.362c-0.219-0.048-0.681-0.072-1.063-0.072
			c-0.299,0-0.463-0.046-0.463-0.214c0-0.167,0.19-0.215,0.6-0.215c0.735,0,1.526,0.023,2.207,0.023
			c0.708,0.024,1.333,0.049,1.715,0.049c0.873,0,6.292,0,6.81-0.024c0.52-0.048,0.955-0.097,1.172-0.143
			c0.137-0.024,0.301-0.097,0.436-0.097c0.137,0,0.164,0.097,0.164,0.215c0,0.167-0.137,0.455-0.219,1.553
			c-0.027,0.239-0.08,1.29-0.137,1.577c-0.025,0.119-0.08,0.262-0.271,0.262c-0.189,0-0.244-0.118-0.244-0.334
			c0-0.167-0.029-0.573-0.164-0.859c-0.191-0.431-0.463-0.717-1.824-0.859c-0.464-0.049-3.325-0.097-3.87-0.097
			c-0.136,0-0.189,0.072-0.189,0.239v6.043c0,0.167,0.026,0.264,0.189,0.264c0.599,0,3.733,0,4.358-0.049
			c0.654-0.048,1.063-0.12,1.309-0.357c0.191-0.192,0.299-0.311,0.436-0.311c0.109,0,0.191,0.048,0.191,0.19
			c0,0.144-0.137,0.527-0.219,1.745c-0.055,0.478-0.109,1.433-0.109,1.6c0,0.191,0,0.453-0.244,0.453
			c-0.191,0-0.244-0.095-0.244-0.215c-0.029-0.238-0.029-0.549-0.109-0.859c-0.137-0.478-0.518-0.836-1.525-0.932
			c-0.518-0.047-3.215-0.071-3.869-0.071c-0.137,0-0.163,0.096-0.163,0.238v1.888c0,0.812-0.028,3.009,0,3.703
			c0.054,1.646,0.489,2.005,3.269,2.005c0.708,0,1.853,0,2.56-0.286c0.709-0.286,1.035-0.789,1.227-1.768
			c0.053-0.263,0.109-0.357,0.299-0.357c0.219,0,0.219,0.19,0.219,0.429c0,0.55-0.219,2.174-0.355,2.652
			c-0.189,0.62-0.436,0.62-1.471,0.62c-2.042,0-3.541-0.047-4.712-0.07c-1.171-0.049-2.016-0.072-2.833-0.072
			c-0.3,0-0.898,0.023-1.553,0.023c-0.627,0.023-1.335,0.049-1.879,0.049c-0.354,0-0.545-0.072-0.545-0.239
			c0-0.12,0.109-0.192,0.436-0.192c0.408,0,0.734-0.047,0.98-0.096c0.544-0.095,0.681-0.62,0.79-1.313
			c0.136-1.004,0.136-2.891,0.136-5.088V92.787z"/>
		<path d="M337.854,92.787c0-3.631,0-4.3-0.055-5.064c-0.055-0.812-0.273-1.195-1.172-1.362c-0.219-0.048-0.682-0.072-1.063-0.072
			c-0.299,0-0.463-0.046-0.463-0.214c0-0.167,0.191-0.215,0.6-0.215c1.443,0,3.16,0.072,3.732,0.072c0.926,0,2.996-0.072,3.84-0.072
			c1.717,0,3.543,0.144,5.014,1.028c0.762,0.452,1.852,1.671,1.852,3.271c0,1.768-0.846,3.392-3.596,5.351
			c2.424,2.675,4.305,4.802,5.912,6.281c1.525,1.387,2.641,1.554,3.049,1.626c0.301,0.047,0.545,0.07,0.764,0.07
			c0.217,0,0.326,0.072,0.326,0.192c0,0.19-0.189,0.239-0.518,0.239h-2.588c-1.525,0-2.205-0.121-2.914-0.455
			c-1.172-0.55-2.207-1.673-3.732-3.511c-1.09-1.314-2.344-2.938-2.695-3.296c-0.137-0.144-0.301-0.168-0.492-0.168l-2.369-0.048
			c-0.135,0-0.219,0.048-0.219,0.191v0.334c0,2.222,0,4.108,0.137,5.112c0.082,0.692,0.246,1.218,1.063,1.313
			c0.408,0.049,1.008,0.096,1.336,0.096c0.217,0,0.326,0.072,0.326,0.192c0,0.167-0.191,0.239-0.545,0.239
			c-1.58,0-3.596-0.072-4.006-0.072c-0.516,0-2.232,0.072-3.322,0.072c-0.354,0-0.545-0.072-0.545-0.239
			c0-0.12,0.109-0.192,0.436-0.192c0.41,0,0.736-0.047,0.98-0.096c0.545-0.095,0.682-0.62,0.791-1.313
			c0.137-1.004,0.137-2.891,0.137-5.088V92.787z M341.066,94.673c0,0.263,0.055,0.359,0.246,0.43
			c0.572,0.167,1.389,0.239,2.07,0.239c1.09,0,1.443-0.097,1.934-0.406c0.818-0.525,1.607-1.625,1.607-3.583
			c0-3.392-2.561-4.371-4.168-4.371c-0.682,0-1.17,0.023-1.443,0.095c-0.191,0.047-0.246,0.144-0.246,0.334V94.673z"/>
		<path d="M375.309,92.787c0-3.631,0-4.3-0.055-5.064c-0.055-0.812-0.326-1.218-0.926-1.337c-0.299-0.072-0.654-0.097-0.98-0.097
			c-0.271,0-0.436-0.046-0.436-0.239c0-0.143,0.217-0.19,0.652-0.19c1.037,0,2.752,0.072,3.541,0.072
			c0.684,0,2.289-0.072,3.324-0.072c0.355,0,0.572,0.048,0.572,0.19c0,0.193-0.164,0.239-0.436,0.239
			c-0.273,0-0.49,0.024-0.818,0.072c-0.734,0.119-0.953,0.527-1.006,1.362c-0.057,0.765-0.057,1.434-0.057,5.064v4.204
			c0,2.316,0,4.204,0.109,5.23c0.082,0.645,0.273,1.075,1.09,1.17c0.383,0.049,0.98,0.096,1.389,0.096
			c0.301,0,0.438,0.072,0.438,0.192c0,0.167-0.219,0.239-0.518,0.239c-1.799,0-3.514-0.072-4.25-0.072
			c-0.627,0-2.342,0.072-3.432,0.072c-0.355,0-0.545-0.072-0.545-0.239c0-0.12,0.109-0.192,0.436-0.192
			c0.408,0,0.734-0.047,0.98-0.096c0.545-0.095,0.709-0.501,0.789-1.194c0.137-1.002,0.137-2.89,0.137-5.206V92.787z"/>
		<path d="M404.512,92.787c0-3.631,0-4.3-0.055-5.064c-0.055-0.812-0.271-1.195-1.172-1.362c-0.219-0.048-0.682-0.072-1.063-0.072
			c-0.299,0-0.463-0.046-0.463-0.214c0-0.167,0.191-0.215,0.6-0.215c1.443,0,3.16,0.072,3.922,0.072
			c0.846,0,2.561-0.072,4.195-0.072c3.406,0,7.953,0,10.924,2.724c1.363,1.241,2.643,3.224,2.643,6.067
			c0,3.009-1.445,5.303-2.969,6.664c-1.254,1.122-4.086,2.817-9.127,2.817c-0.98,0-2.096-0.07-3.133-0.143
			c-1.035-0.07-1.988-0.143-2.67-0.143c-0.299,0-0.896,0.023-1.551,0.023c-0.627,0.023-1.336,0.049-1.881,0.049
			c-0.354,0-0.545-0.072-0.545-0.239c0-0.12,0.109-0.192,0.436-0.192c0.41,0,0.736-0.047,0.98-0.096
			c0.545-0.095,0.682-0.62,0.791-1.313c0.137-1.004,0.137-2.891,0.137-5.088V92.787z M407.916,95.413
			c0,2.534,0.027,4.373,0.055,4.826c0.027,0.598,0.082,1.552,0.299,1.815c0.355,0.453,1.418,0.956,3.57,0.956
			c2.777,0,4.631-0.479,6.264-1.721c1.744-1.313,2.289-3.487,2.289-5.947c0-3.033-1.443-4.993-2.615-5.972
			c-2.506-2.102-5.611-2.389-7.736-2.389c-0.545,0-1.553,0.072-1.771,0.167c-0.244,0.095-0.326,0.215-0.326,0.478
			c-0.027,0.812-0.027,2.891-0.027,4.777V95.413z"/>
		<path d="M463.432,102.318c0,0.645-0.025,0.692-0.354,0.859c-1.771,0.812-4.441,1.075-6.564,1.075
			c-6.674,0-12.586-2.771-12.586-9.363c0-3.823,2.262-6.499,4.74-7.812c2.615-1.385,5.039-1.552,7.328-1.552
			c1.879,0,4.275,0.285,4.82,0.382c0.572,0.096,1.525,0.239,2.152,0.263c0.328,0.023,0.381,0.118,0.381,0.285
			c0,0.264-0.189,0.933-0.189,3.919c0,0.381-0.082,0.501-0.299,0.501c-0.191,0-0.246-0.12-0.273-0.311
			c-0.082-0.548-0.219-1.313-0.926-1.981c-0.818-0.766-2.998-1.864-6.074-1.864c-1.498,0-3.488,0.096-5.395,1.481
			c-1.525,1.123-2.506,2.914-2.506,5.852c0,5.136,3.732,8.982,9.479,8.982c0.709,0,1.662,0,2.316-0.264
			c0.408-0.168,0.518-0.478,0.518-0.884v-2.245c0-1.194,0-2.102-0.027-2.818c-0.027-0.813-0.273-1.195-1.172-1.362
			c-0.217-0.049-0.682-0.071-1.061-0.071c-0.246,0-0.41-0.048-0.41-0.19c0-0.192,0.191-0.239,0.572-0.239
			c1.416,0,3.133,0.071,3.949,0.071c0.844,0,2.289-0.071,3.188-0.071c0.354,0,0.545,0.047,0.545,0.239
			c0,0.143-0.162,0.19-0.354,0.19c-0.219,0-0.41,0.022-0.736,0.071c-0.736,0.118-1.008,0.525-1.035,1.362
			c-0.027,0.717-0.027,1.672-0.027,2.865V102.318z"/>
		<path d="M487.92,92.787c0-3.631,0-4.3-0.053-5.064c-0.057-0.812-0.273-1.195-1.172-1.362c-0.219-0.048-0.682-0.072-1.063-0.072
			c-0.299,0-0.463-0.046-0.463-0.214c0-0.167,0.189-0.215,0.6-0.215c0.734,0,1.525,0.023,2.207,0.023
			c0.707,0.024,1.334,0.049,1.715,0.049c0.873,0,6.293,0,6.811-0.024c0.518-0.048,0.953-0.097,1.172-0.143
			c0.137-0.024,0.299-0.097,0.436-0.097s0.162,0.097,0.162,0.215c0,0.167-0.135,0.455-0.217,1.553
			c-0.027,0.239-0.082,1.29-0.137,1.577c-0.027,0.119-0.082,0.262-0.273,0.262c-0.189,0-0.244-0.118-0.244-0.334
			c0-0.167-0.027-0.573-0.164-0.859c-0.189-0.431-0.463-0.717-1.824-0.859c-0.463-0.049-3.324-0.097-3.869-0.097
			c-0.135,0-0.189,0.072-0.189,0.239v6.043c0,0.167,0.027,0.264,0.189,0.264c0.6,0,3.732,0,4.359-0.049
			c0.654-0.048,1.063-0.12,1.307-0.357c0.191-0.192,0.301-0.311,0.436-0.311c0.109,0,0.191,0.048,0.191,0.19
			c0,0.144-0.135,0.527-0.217,1.745c-0.055,0.478-0.109,1.433-0.109,1.6c0,0.191,0,0.453-0.246,0.453
			c-0.189,0-0.244-0.095-0.244-0.215c-0.027-0.238-0.027-0.549-0.109-0.859c-0.137-0.478-0.518-0.836-1.525-0.932
			c-0.518-0.047-3.215-0.071-3.867-0.071c-0.137,0-0.164,0.096-0.164,0.238v1.888c0,0.812-0.027,3.009,0,3.703
			c0.055,1.646,0.49,2.005,3.27,2.005c0.707,0,1.852,0,2.561-0.286c0.707-0.286,1.035-0.789,1.225-1.768
			c0.055-0.263,0.109-0.357,0.299-0.357c0.219,0,0.219,0.19,0.219,0.429c0,0.55-0.219,2.174-0.354,2.652
			c-0.191,0.62-0.436,0.62-1.471,0.62c-2.043,0-3.541-0.047-4.713-0.07c-1.172-0.049-2.016-0.072-2.834-0.072
			c-0.299,0-0.898,0.023-1.553,0.023c-0.627,0.023-1.334,0.049-1.879,0.049c-0.354,0-0.545-0.072-0.545-0.239
			c0-0.12,0.109-0.192,0.436-0.192c0.408,0,0.734-0.047,0.98-0.096c0.545-0.095,0.682-0.62,0.791-1.313
			c0.135-1.004,0.135-2.891,0.135-5.088V92.787z"/>
	</g>
</g>
<g>
	<path fill="#EE8D30" d="M239.106,69.516c0.096-0.493,0.167-0.874,0.23-1.208h-0.433C238.968,68.536,239.035,69.886,239.106,69.516z
		"/>
	<path fill="#EE8D30" d="M238.867,68.308h0.037C238.89,68.264,238.877,68.248,238.867,68.308z"/>
	<path fill="#EE8D30" d="M317.063,68.308h0.127C317.145,68.176,317.1,68.206,317.063,68.308z"/>
	<path fill="#EE8D30" d="M317.063,68.308h-0.354c0.02,0.198,0.039,0.394,0.072,0.64C316.852,69.458,316.945,68.595,317.063,68.308z"
		/>
	<path fill="#EE8D30" d="M316.852,66.615c-0.195-0.293-0.473-0.739-0.885-1.474c-2.76-4.911-2.531-7.573-6.76-11.298
		c-4.166-3.668-4.074-3.679-8.982-6.268c-0.037-0.022-0.07-0.039-0.109-0.061c-4.02,1.234-10.072,2.406-11.412,0.643
		c1.635-1.345,3.371-2.803,5.34-3.99c-1.082-0.445-2.375-0.813-4.383-1.176c-5.392-0.976-5.389-0.649-10.848-1.089
		c-5.194-0.415-5.014,0.237-10.188,0.826c-2.503,0.285-2.421,1.762-4.836,2.473c-3.1,0.91-3.283,0.163-6.093,1.754
		c-4.859,2.753-2.233,2.288-6.113,6.302c-3.968,4.107-5.299,5.744-7.665,10.938c-2.099,4.611-3.948,0.734-4.58,4.111h77.373
		C316.578,67.013,316.691,66.628,316.852,66.615z"/>
	<path fill="#EE8D30" d="M316.852,66.615C317.496,67.578,317.127,66.585,316.852,66.615L316.852,66.615z"/>
</g>
<path fill="#0095C8" stroke="#0095C8" stroke-width="0.7775" d="M503.705,67.911c-21.297,4.356-45.881,0.41-67.215-0.526
	c-33.787-1.486-61.75,0.339-88.566-0.496c-42.148-1.308-53.322,1.422-95.805-0.293c-40.143-1.619-71.088,2.745-108.749,1.252
	c-19.793-0.782-67.821-2.375-86.49,4.331c0,0,118.664-3.529,123.927-2.095c5.268,1.437,95.458-0.417,127.393-0.8
	c2.393-0.03,118.787,0.322,122.139,0.8c3.352,0.48,59.791,0.217,59.791,0.217L503.705,67.911z"/>
<g>
	<path fill="#EE8D30" d="M139.969,126.676c0.254,1.193,0.381,2.721,0.563,4.248h0.035c0.037-0.286,0.055-0.572,0.091-0.859
		c0.091-1.018,0.2-2.036,0.381-3.055l1.016-6.507h2.631l-2.523,11.933h-3.047l-1.016-4.709c-0.272-1.258-0.363-2.531-0.544-3.804
		h-0.037c-0.181,1.272-0.271,2.546-0.544,3.804l-0.907,4.709h-3.049l-2.595-11.933h2.631l1.143,6.507
		c0.181,1.019,0.29,2.037,0.381,3.055c0.036,0.287,0.054,0.573,0.072,0.859h0.037c0.2-1.527,0.327-3.055,0.581-4.248l1.233-6.173
		h2.105L139.969,126.676z"/>
	<path fill="#EE8D30" d="M152.928,132.436l3.248-11.933h3.429l3.085,11.933h-2.722l-0.671-3.023h-2.976l-0.671,3.023H152.928z
		 M156.72,127.663h2.177l-0.689-3.389c-0.127-0.557-0.181-1.099-0.254-1.655c-0.017-0.271-0.054-0.542-0.09-0.795h-0.036
		c-0.037,0.253-0.073,0.524-0.091,0.795c-0.073,0.557-0.127,1.099-0.254,1.655L156.72,127.663z"/>
	<path fill="#EE8D30" d="M170.148,120.503h8.475v1.749h-2.958v10.184h-2.54v-10.184h-2.977V120.503z"/>
	<path fill="#EE8D30" d="M188.058,132.436v-11.933h7.149v1.749h-4.609v3.009h4.246v1.749h-4.246v3.676h4.609v1.75H188.058z"/>
	<path fill="#EE8D30" d="M207.69,127.296v5.14h-2.54v-11.933h4.808c2.197,0,3.866,0.667,3.866,2.864
		c0,1.304-0.381,2.672-2.086,2.879v0.032c1.505,0.175,1.959,1.018,1.959,2.164c0,0.493-0.072,3.42,0.545,3.771v0.223h-2.794
		c-0.309-0.764-0.254-2.229-0.272-3.023c-0.018-0.731,0-1.734-0.871-1.957c-0.689-0.175-1.433-0.159-2.159-0.159H207.69z
		 M207.69,125.546h1.996c0.835-0.048,1.488-0.524,1.488-1.718c0-1.337-0.635-1.56-1.596-1.576h-1.888V125.546z"/>
	<path fill="#EE8D30" d="M224.348,132.436v-11.933h7.203v1.749h-4.663v3.023h4.372v1.751h-4.372v5.409H224.348z"/>
	<path fill="#EE8D30" d="M243.817,127.296v5.14h-2.54v-11.933h4.808c2.196,0,3.865,0.667,3.865,2.864
		c0,1.304-0.381,2.672-2.087,2.879v0.032c1.506,0.175,1.959,1.018,1.959,2.164c0,0.493-0.071,3.42,0.546,3.771v0.223h-2.795
		c-0.309-0.764-0.254-2.229-0.272-3.023c-0.019-0.731,0-1.734-0.871-1.957c-0.689-0.175-1.433-0.159-2.159-0.159H243.817z
		 M243.817,125.546h1.996c0.834-0.048,1.487-0.524,1.487-1.718c0-1.337-0.635-1.56-1.597-1.576h-1.887V125.546z"/>
	<path fill="#EE8D30" d="M260.255,125.516c0.11-3.039,0.382-5.299,4.445-5.299c4.065,0,4.338,2.26,4.445,5.299v1.702
		c0,3.181-0.272,5.504-4.445,5.504s-4.445-2.323-4.445-5.504V125.516z M262.869,128.33c0,0.987,0.091,2.594,1.832,2.594
		c1.814,0,1.833-1.638,1.833-2.784v-3.055c0-0.953,0.055-3.071-1.833-3.071c-1.995,0-1.832,2.084-1.832,3.008V128.33z"/>
	<path fill="#EE8D30" d="M285.532,120.503h2.541v11.933h-2.65l-1.978-4.248c-0.672-1.417-1.216-2.863-1.815-4.741h-0.034
		c0.09,0.987,0.198,2.195,0.271,3.404c0.073,1.194,0.127,2.387,0.127,3.343v2.242h-2.54v-11.933h2.63l1.979,4.344
		c0.652,1.384,1.197,2.8,1.813,4.741h0.036c-0.091-1.083-0.18-2.244-0.253-3.39s-0.127-2.29-0.127-3.356V120.503z"/>
	<path fill="#EE8D30" d="M297.598,120.503h8.473v1.749h-2.957v10.184h-2.539v-10.184h-2.977V120.503z"/>
	<path fill="#EE8D30" d="M330.602,127.296v5.14h-2.539v-11.933h4.809c2.195,0,3.865,0.667,3.865,2.864
		c0,1.304-0.381,2.672-2.086,2.879v0.032c1.506,0.175,1.959,1.018,1.959,2.164c0,0.493-0.074,3.42,0.545,3.771v0.223h-2.795
		c-0.311-0.764-0.254-2.229-0.273-3.023c-0.018-0.731,0-1.734-0.871-1.957c-0.688-0.175-1.434-0.159-2.158-0.159H330.602z
		 M330.602,125.546h1.996c0.836-0.048,1.488-0.524,1.488-1.718c0-1.337-0.633-1.56-1.596-1.576h-1.889V125.546z"/>
	<path fill="#EE8D30" d="M347.098,132.436v-11.933h7.148v1.749h-4.607v3.009h4.246v1.749h-4.246v3.676h4.607v1.75H347.098z"/>
	<path fill="#EE8D30" d="M369.414,124.132c0.018-1.068-0.09-2.118-1.486-2.118c-0.855,0-1.396,0.304-1.396,1.114
		c0,0.907,0.652,1.257,1.451,1.702c0.834,0.462,2.375,1.352,3.082,1.957c0.873,0.748,1.145,1.464,1.145,2.499
		c0,2.259-1.705,3.436-4.191,3.436c-3.049,0-4.137-1.495-4.137-3.627v-0.875h2.539v0.699c-0.053,1.162,0.346,2.005,1.598,2.005
		c1.07,0,1.578-0.493,1.578-1.4c0-0.7-0.363-1.177-1.016-1.575c-1.324-0.906-2.977-1.558-4.01-2.753
		c-0.418-0.54-0.652-1.192-0.652-1.828c0-2.036,1.305-3.15,3.992-3.15c4.045,0,3.936,2.736,3.953,3.915H369.414z"/>
	<path fill="#EE8D30" d="M382.17,125.516c0.111-3.039,0.383-5.299,4.447-5.299s4.338,2.26,4.445,5.299v1.702
		c0,3.181-0.271,5.504-4.445,5.504s-4.447-2.323-4.447-5.504V125.516z M384.783,128.33c0,0.987,0.092,2.594,1.834,2.594
		c1.814,0,1.832-1.638,1.832-2.784v-3.055c0-0.953,0.055-3.071-1.832-3.071c-1.994,0-1.834,2.084-1.834,3.008V128.33z"/>
	<path fill="#EE8D30" d="M403.873,127.296v5.14h-2.541v-11.933h4.809c2.197,0,3.865,0.667,3.865,2.864
		c0,1.304-0.381,2.672-2.086,2.879v0.032c1.506,0.175,1.959,1.018,1.959,2.164c0,0.493-0.072,3.42,0.545,3.771v0.223h-2.795
		c-0.309-0.764-0.254-2.229-0.271-3.023c-0.02-0.731,0-1.734-0.871-1.957c-0.689-0.175-1.434-0.159-2.16-0.159H403.873z
		 M403.873,125.546h1.994c0.838-0.048,1.49-0.524,1.49-1.718c0-1.337-0.635-1.56-1.598-1.576h-1.887V125.546z"/>
	<path fill="#EE8D30" d="M419.189,120.503h8.473v1.749h-2.957v10.184h-2.539v-10.184h-2.977V120.503z"/>
</g>
</svg>
