<svg id="svg" version="1.1" width="400" height="400" xmlns="http://www.w3.org/2000/svg" xmlns:xlink="http://www.w3.org/1999/xlink" style="display: block;"><g id="svgg"><path id="path0" d="" stroke="none" fill="#000000" fill-rule="evenodd"></path><path id="path1" d="M9.280 128.080 C 8.575 128.785,8.693 129.200,9.600 129.200 C 10.133 129.200,10.400 128.933,10.400 128.400 C 10.400 127.493,9.985 127.375,9.280 128.080 M119.600 128.400 C 119.194 129.159,119.296 129.200,121.586 129.200 C 123.383 129.200,124.000 129.058,124.000 128.643 C 124.000 127.359,120.268 127.153,119.600 128.400 M162.442 128.322 C 162.216 128.743,162.201 129.279,162.406 129.610 C 162.839 130.310,163.056 130.112,163.411 128.699 C 163.726 127.442,163.053 127.180,162.442 128.322 M331.067 127.866 C 330.214 128.719,330.911 129.200,333.000 129.200 C 334.282 129.200,335.200 129.023,335.200 128.776 C 335.200 128.543,335.022 128.463,334.805 128.597 C 334.587 128.732,334.505 128.592,334.622 128.286 C 334.848 127.699,331.617 127.317,331.067 127.866 M127.200 129.858 C 127.200 130.226,127.725 130.400,128.833 130.400 C 129.962 130.400,130.415 130.246,130.300 129.900 C 130.066 129.195,127.200 129.156,127.200 129.858 M339.600 129.772 C 339.600 130.181,339.961 130.400,340.633 130.400 C 341.886 130.400,341.749 129.461,340.469 129.272 C 339.892 129.187,339.600 129.355,339.600 129.772 M163.742 130.269 C 163.221 130.462,163.502 132.000,164.059 132.000 C 164.592 132.000,164.967 130.802,164.553 130.423 C 164.359 130.245,163.994 130.176,163.742 130.269 M132.500 130.665 C 131.444 131.091,131.991 132.000,133.300 131.994 C 134.218 131.990,134.434 131.883,134.036 131.631 C 133.726 131.435,133.186 131.381,132.836 131.512 C 132.286 131.718,132.274 131.659,132.749 131.075 C 133.325 130.367,133.308 130.339,132.500 130.665 M345.600 131.400 C 345.600 131.745,345.961 132.000,346.449 132.000 C 347.158 132.000,347.216 131.901,346.800 131.400 C 346.526 131.070,346.144 130.800,345.951 130.800 C 345.758 130.800,345.600 131.070,345.600 131.400 M136.697 132.851 C 136.805 133.263,137.187 133.586,137.547 133.568 C 138.027 133.545,138.056 133.479,137.655 133.320 C 137.245 133.157,137.229 133.030,137.589 132.807 C 137.916 132.605,137.819 132.446,137.285 132.306 C 136.673 132.146,136.544 132.265,136.697 132.851 M349.200 132.800 C 349.200 133.240,349.451 133.600,349.757 133.600 C 350.557 133.600,350.864 132.510,350.142 132.233 C 349.252 131.892,349.200 131.923,349.200 132.800 M352.400 134.400 C 352.400 134.953,352.667 135.200,353.262 135.200 C 354.099 135.200,354.103 135.176,353.400 134.400 C 353.002 133.960,352.614 133.600,352.538 133.600 C 352.462 133.600,352.400 133.960,352.400 134.400 M139.855 134.600 C 139.696 135.015,139.882 135.200,140.462 135.200 C 141.160 135.200,141.216 135.101,140.800 134.600 C 140.526 134.270,140.253 134.000,140.194 134.000 C 140.134 134.000,139.982 134.270,139.855 134.600 M355.600 136.000 C 355.600 136.440,355.859 136.800,356.176 136.800 C 356.889 136.800,357.239 136.289,356.874 135.781 C 356.361 135.067,355.600 135.198,355.600 136.000 M170.217 137.172 C 169.944 137.614,170.575 138.092,170.944 137.722 C 171.325 137.342,171.254 136.800,170.824 136.800 C 170.617 136.800,170.344 136.968,170.217 137.172 M358.400 137.667 C 358.400 138.133,358.691 138.400,359.200 138.400 C 359.640 138.400,360.000 138.220,360.000 138.000 C 360.000 137.780,359.809 137.600,359.576 137.600 C 359.343 137.600,359.245 137.450,359.359 137.267 C 359.472 137.083,359.303 136.933,358.982 136.933 C 358.662 136.933,358.400 137.263,358.400 137.667 M144.400 137.800 C 144.400 138.133,144.756 138.400,145.200 138.400 C 145.733 138.400,146.000 138.667,146.000 139.200 C 146.000 139.733,146.267 140.000,146.800 140.000 C 147.333 140.000,147.600 140.267,147.600 140.800 C 147.600 141.333,147.867 141.600,148.400 141.600 C 148.943 141.600,149.200 141.867,149.200 142.429 C 149.200 142.987,149.417 143.216,149.862 143.129 C 150.826 142.941,150.916 141.600,149.965 141.600 C 149.271 141.600,149.007 141.164,149.163 140.270 C 149.194 140.089,149.047 140.047,148.836 140.178 C 148.624 140.309,147.675 139.694,146.726 138.813 C 144.853 137.074,144.400 136.876,144.400 137.800 M171.200 139.067 C 171.200 139.433,171.318 139.615,171.463 139.470 C 171.608 139.325,171.968 139.407,172.263 139.652 C 172.684 140.001,172.800 139.914,172.800 139.249 C 172.800 138.667,172.549 138.400,172.000 138.400 C 171.520 138.400,171.200 138.667,171.200 139.067 M363.475 140.258 C 362.925 140.808,363.211 141.657,363.900 141.524 C 364.285 141.450,364.600 141.137,364.600 140.828 C 364.600 140.196,363.894 139.839,363.475 140.258 M364.800 142.400 C 364.800 142.853,365.067 143.200,365.414 143.200 C 365.904 143.200,365.942 143.039,365.600 142.400 C 365.365 141.960,365.088 141.600,364.986 141.600 C 364.884 141.600,364.800 141.960,364.800 142.400 M174.800 143.600 C 175.035 144.040,175.402 144.400,175.614 144.400 C 175.826 144.400,176.000 144.040,176.000 143.600 C 176.000 143.062,175.733 142.800,175.186 142.800 C 174.496 142.800,174.437 142.922,174.800 143.600 M150.800 144.013 C 150.800 144.533,151.071 144.800,151.600 144.800 C 152.044 144.800,152.400 145.067,152.400 145.400 C 152.400 145.765,152.753 145.988,153.300 145.968 C 153.795 145.951,153.974 145.846,153.698 145.734 C 153.421 145.623,153.297 145.367,153.421 145.166 C 153.545 144.965,153.361 144.800,153.011 144.800 C 152.661 144.800,152.277 144.544,152.157 144.231 C 151.793 143.285,150.800 143.125,150.800 144.013 M177.600 147.957 C 177.600 148.154,177.885 148.424,178.233 148.557 C 179.127 148.900,179.200 148.873,179.200 148.200 C 179.200 147.867,178.844 147.600,178.400 147.600 C 177.960 147.600,177.600 147.761,177.600 147.957 M155.600 150.013 C 155.600 150.529,155.871 150.800,156.387 150.800 C 157.275 150.800,157.115 149.807,156.169 149.443 C 155.796 149.300,155.600 149.496,155.600 150.013 M179.307 151.556 C 179.340 151.998,179.579 152.229,179.882 152.113 C 180.586 151.843,180.541 150.800,179.825 150.800 C 179.507 150.800,179.275 151.139,179.307 151.556 M157.200 153.267 C 157.200 153.670,157.470 154.000,157.800 154.000 C 158.130 154.000,158.400 153.670,158.400 153.267 C 158.400 152.863,158.130 152.533,157.800 152.533 C 157.470 152.533,157.200 152.863,157.200 153.267 M375.600 153.200 C 375.600 153.733,375.867 154.000,376.400 154.000 C 376.933 154.000,377.200 154.267,377.200 154.800 C 377.200 155.333,377.467 155.600,378.000 155.600 C 379.115 155.600,379.011 155.293,377.372 153.747 C 375.702 152.172,375.600 152.141,375.600 153.200 M181.041 155.436 C 180.769 156.145,181.049 156.800,181.624 156.800 C 181.831 156.800,182.000 156.350,182.000 155.800 C 182.000 154.681,181.416 154.459,181.041 155.436 M158.400 156.425 C 158.400 156.925,158.675 157.200,159.175 157.200 C 159.675 157.200,159.931 156.944,159.896 156.479 C 159.820 155.475,158.400 155.424,158.400 156.425 M378.800 158.000 C 378.800 158.533,379.067 158.800,379.600 158.800 C 380.133 158.800,380.400 159.067,380.400 159.600 C 380.400 160.044,380.667 160.400,381.000 160.400 C 381.938 160.400,381.711 159.714,380.341 158.403 C 378.850 156.979,378.800 156.966,378.800 158.000 M182.000 158.786 C 182.000 159.142,183.253 160.000,183.774 160.000 C 183.898 160.000,184.000 159.640,184.000 159.200 C 184.000 158.613,183.733 158.400,183.000 158.400 C 182.450 158.400,182.000 158.574,182.000 158.786 M160.000 160.429 C 160.000 161.766,160.126 162.034,160.700 161.924 C 161.892 161.695,161.568 158.800,160.351 158.800 C 160.158 158.800,160.000 159.533,160.000 160.429 M116.406 160.300 C 116.431 161.512,118.400 162.023,118.400 160.818 C 118.400 160.212,118.140 160.000,117.400 160.000 C 116.850 160.000,116.403 160.135,116.406 160.300 M327.674 160.700 C 327.886 161.816,330.800 161.932,330.800 160.824 C 330.800 160.127,330.549 160.000,329.171 160.000 C 327.835 160.000,327.565 160.126,327.674 160.700 M334.000 162.400 C 334.000 162.844,334.267 163.200,334.600 163.200 C 334.933 163.200,335.200 162.844,335.200 162.400 C 335.200 161.956,334.933 161.600,334.600 161.600 C 334.267 161.600,334.000 161.956,334.000 162.400 M382.500 162.283 C 381.808 162.537,381.870 163.600,382.576 163.600 C 383.304 163.600,383.802 162.832,383.345 162.415 C 383.155 162.242,382.775 162.183,382.500 162.283 M123.275 163.471 C 123.647 163.569,124.031 163.953,124.129 164.325 C 124.255 164.803,124.321 164.738,124.354 164.100 C 124.389 163.407,124.193 163.211,123.500 163.246 C 122.862 163.279,122.797 163.345,123.275 163.471 M336.974 163.900 C 337.030 164.285,337.194 164.555,337.338 164.500 C 337.482 164.445,337.780 164.400,338.000 164.400 C 338.220 164.400,338.400 164.130,338.400 163.800 C 338.400 163.470,338.056 163.200,337.635 163.200 C 337.135 163.200,336.906 163.442,336.974 163.900 M161.600 166.351 C 161.600 167.725,161.731 168.000,162.388 168.000 C 163.032 168.000,163.166 167.744,163.123 166.598 C 163.094 165.827,162.981 165.286,162.872 165.395 C 162.763 165.504,162.432 165.393,162.137 165.148 C 161.702 164.787,161.600 165.017,161.600 166.351 M340.104 165.521 C 340.180 166.525,341.600 166.576,341.600 165.575 C 341.600 165.075,341.325 164.800,340.825 164.800 C 340.325 164.800,340.069 165.056,340.104 165.521 M383.600 166.000 C 383.600 166.533,383.867 166.800,384.400 166.800 C 385.349 166.800,385.474 165.791,384.567 165.443 C 383.650 165.091,383.600 165.119,383.600 166.000 M127.868 168.567 C 127.748 168.879,127.924 169.239,128.258 169.367 C 129.148 169.708,129.200 169.677,129.200 168.800 C 129.200 167.887,128.196 167.711,127.868 168.567 M385.200 169.363 C 385.200 170.124,385.365 170.282,385.990 170.118 C 386.627 169.952,386.702 169.765,386.376 169.156 C 385.813 168.104,385.200 168.212,385.200 169.363 M346.655 170.200 C 346.782 170.530,347.046 170.800,347.243 170.800 C 347.439 170.800,347.600 170.530,347.600 170.200 C 347.600 169.870,347.336 169.600,347.013 169.600 C 346.655 169.600,346.515 169.835,346.655 170.200 M129.603 171.194 C 129.133 171.488,129.110 171.670,129.497 172.057 C 130.079 172.639,130.525 172.312,130.335 171.442 C 130.239 171.000,130.028 170.928,129.603 171.194 M386.800 173.788 C 386.800 174.478,387.009 174.735,387.541 174.694 C 388.399 174.630,388.263 173.386,387.361 173.040 C 386.976 172.892,386.800 173.126,386.800 173.788 M130.961 174.706 C 130.489 175.022,130.488 176.055,130.960 177.500 C 131.466 179.050,132.000 178.485,132.000 176.400 C 132.000 174.425,131.820 174.131,130.961 174.706 M350.806 175.900 C 350.820 176.575,351.587 177.445,351.600 176.800 C 351.611 176.267,351.655 176.267,352.000 176.800 C 352.314 177.285,352.389 177.228,352.394 176.500 C 352.398 175.865,352.165 175.600,351.600 175.600 C 351.160 175.600,350.803 175.735,350.806 175.900 M163.200 179.767 C 163.200 183.677,163.426 184.955,164.048 184.570 C 164.249 184.446,164.309 184.177,164.183 183.972 C 164.056 183.768,164.143 183.600,164.376 183.600 C 164.609 183.600,164.800 183.319,164.800 182.976 C 164.800 182.633,164.665 182.436,164.500 182.538 C 164.335 182.640,164.200 181.768,164.200 180.600 C 164.200 179.432,164.335 178.560,164.500 178.662 C 164.941 178.935,164.865 177.669,164.386 176.774 C 163.542 175.197,163.200 176.060,163.200 179.767 M180.686 176.794 C 180.484 177.567,180.786 177.584,196.340 177.691 C 211.891 177.798,213.367 177.700,212.943 176.595 C 212.551 175.573,180.954 175.769,180.686 176.794 M237.036 176.650 C 236.906 176.988,236.800 177.341,236.800 177.433 C 236.800 177.525,244.090 177.600,253.000 177.600 C 266.580 177.600,269.200 177.510,269.200 177.043 C 269.200 176.052,268.121 175.985,252.584 176.009 C 239.183 176.031,237.243 176.111,237.036 176.650 M388.400 179.400 C 388.400 180.512,388.557 180.800,389.165 180.800 C 389.942 180.800,389.987 180.502,389.449 178.900 C 388.991 177.539,388.400 177.821,388.400 179.400 M131.304 184.500 C 130.674 185.300,130.360 187.128,130.805 187.403 C 131.029 187.542,131.111 187.821,130.986 188.023 C 130.861 188.225,131.038 188.284,131.379 188.153 C 131.823 187.982,132.000 187.357,132.000 185.957 C 132.000 183.873,131.924 183.713,131.304 184.500 M355.822 185.164 C 355.477 185.722,356.018 186.800,356.643 186.800 C 356.970 186.800,357.200 186.388,357.200 185.800 C 357.200 184.817,356.295 184.399,355.822 185.164 M390.000 189.000 C 390.000 191.799,390.351 192.649,391.045 191.527 C 391.801 190.304,391.274 186.000,390.369 186.000 C 390.166 186.000,390.000 187.350,390.000 189.000 M129.467 190.667 C 129.006 191.127,129.175 191.600,129.800 191.600 C 130.130 191.600,130.400 191.330,130.400 191.000 C 130.400 190.375,129.927 190.206,129.467 190.667 M357.544 190.500 C 357.290 190.953,357.393 193.528,357.658 193.364 C 357.846 193.248,358.000 193.433,358.000 193.776 C 358.000 194.119,358.180 194.400,358.400 194.400 C 358.620 194.400,358.800 193.478,358.800 192.351 C 358.800 190.477,358.742 190.349,358.123 190.851 C 357.663 191.224,357.543 191.240,357.747 190.900 C 357.912 190.625,357.947 190.400,357.824 190.400 C 357.701 190.400,357.575 190.445,357.544 190.500 M161.600 194.400 C 161.600 196.114,161.608 196.125,162.567 195.757 C 163.609 195.357,163.254 192.800,162.157 192.800 C 161.774 192.800,161.600 193.299,161.600 194.400 M127.867 193.467 C 127.316 194.017,127.629 194.800,128.400 194.800 C 128.933 194.800,129.200 194.533,129.200 194.000 C 129.200 193.229,128.417 192.916,127.867 193.467 M121.856 199.478 C 121.378 199.956,121.598 200.800,122.200 200.800 C 122.530 200.800,122.800 200.541,122.800 200.224 C 122.800 199.555,122.229 199.104,121.856 199.478 M160.000 200.600 C 160.000 201.774,160.137 202.032,160.700 201.923 C 161.658 201.738,161.641 199.457,160.681 199.272 C 160.140 199.168,160.000 199.442,160.000 200.600 M117.474 201.263 C 116.431 201.846,116.676 202.400,117.976 202.400 C 119.405 202.400,119.797 201.915,118.848 201.323 C 118.394 201.039,117.911 201.018,117.474 201.263 M50.200 202.948 C 49.407 203.530,48.874 233.807,49.643 234.576 C 50.886 235.819,51.000 234.418,50.886 219.350 C 50.780 205.317,50.820 204.270,51.486 203.725 C 51.879 203.403,51.989 203.246,51.730 203.375 C 51.472 203.504,51.202 203.329,51.130 202.985 C 51.015 202.431,50.909 202.427,50.200 202.948 M158.400 204.533 C 158.400 205.396,158.854 205.603,159.448 205.010 C 160.204 204.254,160.141 204.000,159.200 204.000 C 158.760 204.000,158.400 204.240,158.400 204.533 M390.000 208.286 C 390.000 211.549,390.043 211.729,390.671 211.100 C 391.757 210.015,391.542 204.800,390.413 204.800 C 390.161 204.800,390.000 206.158,390.000 208.286 M357.577 205.667 C 357.129 208.269,357.247 209.200,358.024 209.200 C 358.742 209.200,358.830 208.988,358.723 207.531 C 358.630 206.272,357.726 204.801,357.577 205.667 M157.200 207.849 C 157.200 208.380,157.309 208.408,157.800 208.000 C 158.130 207.726,158.400 207.434,158.400 207.351 C 158.400 207.268,158.130 207.200,157.800 207.200 C 157.470 207.200,157.200 207.492,157.200 207.849 M155.600 210.800 C 155.600 211.710,156.603 211.890,156.930 211.039 C 157.181 210.385,156.886 210.000,156.133 210.000 C 155.840 210.000,155.600 210.360,155.600 210.800 M355.975 213.465 C 355.542 214.606,355.994 215.498,356.765 215.022 C 357.317 214.680,357.339 212.400,356.790 212.400 C 356.565 212.400,356.198 212.879,355.975 213.465 M154.000 213.849 C 154.000 214.380,154.109 214.408,154.600 214.000 C 154.930 213.726,155.200 213.434,155.200 213.351 C 155.200 213.268,154.930 213.200,154.600 213.200 C 154.270 213.200,154.000 213.492,154.000 213.849 M152.400 215.600 C 152.400 216.481,152.450 216.509,153.367 216.157 C 154.274 215.809,154.149 214.800,153.200 214.800 C 152.667 214.800,152.400 215.067,152.400 215.600 M388.400 217.987 C 388.400 219.182,388.538 219.522,388.959 219.361 C 389.672 219.087,390.011 217.371,389.461 216.821 C 388.696 216.056,388.400 216.381,388.400 217.987 M354.267 217.067 C 354.120 217.213,354.003 217.528,354.006 217.767 C 354.009 218.005,354.187 217.930,354.400 217.600 C 354.658 217.200,354.790 217.167,354.794 217.500 C 354.797 217.775,354.980 218.000,355.200 218.000 C 355.420 218.000,355.600 217.730,355.600 217.400 C 355.600 216.791,354.754 216.579,354.267 217.067 M353.067 220.267 C 352.606 220.727,352.775 221.200,353.400 221.200 C 353.730 221.200,354.000 220.930,354.000 220.600 C 354.000 219.975,353.527 219.806,353.067 220.267 M386.800 223.200 C 386.800 224.034,387.121 224.193,387.800 223.694 C 388.529 223.158,388.412 222.400,387.600 222.400 C 387.067 222.400,386.800 222.667,386.800 223.200 M144.400 223.357 C 144.400 224.258,145.497 224.436,145.723 223.572 C 145.871 223.009,145.719 222.800,145.163 222.800 C 144.743 222.800,144.400 223.051,144.400 223.357 M351.300 223.065 C 350.497 223.389,350.725 224.400,351.600 224.400 C 352.133 224.400,352.400 224.133,352.400 223.600 C 352.400 222.792,352.208 222.698,351.300 223.065 M138.000 228.000 C 138.000 228.907,138.415 229.025,139.120 228.320 C 139.825 227.615,139.707 227.200,138.800 227.200 C 138.267 227.200,138.000 227.467,138.000 228.000 M385.200 227.776 C 385.200 228.623,385.877 228.897,386.158 228.165 C 386.500 227.273,386.473 227.200,385.800 227.200 C 385.470 227.200,385.200 227.459,385.200 227.776 M135.200 229.587 C 135.200 230.475,136.193 230.315,136.557 229.369 C 136.700 228.996,136.504 228.800,135.987 228.800 C 135.471 228.800,135.200 229.071,135.200 229.587 M130.400 231.114 C 130.400 231.533,130.695 231.829,131.114 231.829 C 131.533 231.829,131.829 231.533,131.829 231.114 C 131.829 230.695,131.533 230.400,131.114 230.400 C 130.695 230.400,130.400 230.695,130.400 231.114 M125.200 232.745 C 125.200 233.309,125.426 233.446,126.133 233.311 C 126.647 233.213,127.067 232.877,127.067 232.566 C 127.067 232.240,126.671 232.000,126.133 232.000 C 125.490 232.000,125.200 232.231,125.200 232.745 M341.800 232.733 C 341.355 233.179,341.646 233.600,342.400 233.600 C 342.840 233.600,343.200 233.360,343.200 233.067 C 343.200 232.554,342.214 232.320,341.800 232.733 M114.400 234.000 C 114.400 234.220,114.400 234.530,114.399 234.689 C 114.398 235.075,118.967 235.104,119.992 234.725 C 121.743 234.077,120.728 233.600,117.600 233.600 C 115.733 233.600,114.400 233.767,114.400 234.000 M337.000 235.600 C 336.665 236.142,337.117 236.800,337.824 236.800 C 338.141 236.800,338.400 236.440,338.400 236.000 C 338.400 235.172,337.435 234.896,337.000 235.600 M334.176 237.787 C 333.419 238.360,333.423 238.375,334.300 238.387 C 334.839 238.395,335.200 238.159,335.200 237.800 C 335.200 237.059,335.141 237.058,334.176 237.787 M328.069 238.917 C 327.441 239.673,327.872 240.000,329.496 240.000 C 330.578 240.000,330.831 239.856,330.726 239.300 C 330.560 238.424,328.701 238.155,328.069 238.917 M378.800 240.576 C 378.800 241.533,379.531 241.677,379.994 240.811 C 380.364 240.120,380.308 240.000,379.614 240.000 C 379.166 240.000,378.800 240.259,378.800 240.576 M377.200 243.449 C 377.200 243.980,377.309 244.008,377.800 243.600 C 378.130 243.326,378.400 243.034,378.400 242.951 C 378.400 242.868,378.130 242.800,377.800 242.800 C 377.470 242.800,377.200 243.092,377.200 243.449 M375.600 245.200 C 375.600 245.733,375.867 246.000,376.400 246.000 C 376.933 246.000,377.200 245.733,377.200 245.200 C 377.200 244.667,376.933 244.400,376.400 244.400 C 375.867 244.400,375.600 244.667,375.600 245.200 M361.600 259.203 C 361.600 259.898,361.705 259.941,362.374 259.523 C 363.211 259.001,363.105 258.400,362.176 258.400 C 361.859 258.400,361.600 258.762,361.600 259.203 M357.050 261.919 C 356.942 262.095,357.021 262.500,357.226 262.819 C 357.598 263.397,358.376 262.785,358.394 261.900 C 358.402 261.499,357.300 261.515,357.050 261.919 M347.606 266.700 C 347.625 267.616,348.302 268.017,348.507 267.234 C 348.652 266.681,348.536 266.400,348.163 266.400 C 347.853 266.400,347.603 266.535,347.606 266.700 M344.250 268.319 C 343.983 268.751,344.467 269.370,345.200 269.533 C 345.530 269.607,345.667 269.533,345.503 269.370 C 345.340 269.207,345.407 268.832,345.652 268.537 C 346.001 268.117,345.918 268.000,345.273 268.000 C 344.819 268.000,344.358 268.144,344.250 268.319 M338.650 269.919 C 338.393 270.336,338.987 271.290,339.445 271.195 C 340.207 271.037,341.200 270.353,341.200 269.986 C 341.200 269.523,338.932 269.463,338.650 269.919 M211.600 271.557 C 211.600 271.974,211.879 272.422,212.221 272.553 C 212.577 272.689,212.737 272.622,212.597 272.395 C 212.463 272.178,212.513 272.000,212.710 272.000 C 212.906 272.000,213.067 271.730,213.067 271.400 C 213.067 271.070,212.737 270.800,212.333 270.800 C 211.880 270.800,211.600 271.090,211.600 271.557 M330.477 271.630 C 330.555 271.867,330.706 272.016,330.810 271.962 C 330.915 271.909,331.417 272.088,331.926 272.360 C 332.541 272.690,333.010 272.724,333.326 272.462 C 333.587 272.245,333.976 272.066,334.190 272.064 C 334.405 272.062,334.645 271.867,334.723 271.630 C 334.814 271.357,334.039 271.200,332.600 271.200 C 331.161 271.200,330.386 271.357,330.477 271.630 " stroke="none" fill="#ffffff" fill-rule="evenodd"></path><path id="path2" d="M11.164 129.844 C 10.823 130.254,10.915 269.050,11.258 271.700 L 11.400 272.800 25.400 272.768 C 33.100 272.751,39.175 272.646,38.900 272.535 C 38.219 272.260,38.271 271.272,39.004 270.539 C 39.537 270.006,39.607 263.411,39.596 214.468 C 39.584 162.570,39.628 158.969,40.268 158.501 C 40.998 157.967,112.140 157.728,114.750 158.250 C 115.595 158.419,116.000 158.733,116.000 159.221 C 116.000 159.853,116.263 159.915,118.138 159.722 C 119.927 159.537,120.401 159.630,121.038 160.294 C 121.457 160.730,122.295 161.206,122.900 161.351 C 123.505 161.496,124.000 161.882,124.000 162.208 C 124.000 162.541,124.364 162.800,124.831 162.800 C 125.694 162.800,128.000 164.815,128.000 165.569 C 128.000 165.806,128.270 166.000,128.600 166.000 C 128.966 166.000,129.200 166.373,129.200 166.954 C 129.200 167.541,129.602 168.171,130.243 168.591 C 131.094 169.149,131.243 169.487,131.053 170.437 C 130.879 171.307,130.971 171.600,131.419 171.600 C 132.579 171.600,132.938 173.329,132.452 176.591 C 131.904 180.280,131.891 180.792,132.366 180.042 C 133.002 179.037,134.000 179.866,134.000 181.400 C 134.000 182.934,133.002 183.763,132.366 182.758 C 131.883 181.997,131.896 182.574,132.436 186.054 C 132.948 189.355,132.722 190.623,131.569 190.924 C 130.954 191.085,130.794 191.352,130.973 191.916 C 131.309 192.973,130.897 193.881,129.972 194.123 C 129.457 194.258,129.200 194.674,129.200 195.375 C 129.200 195.953,128.930 196.529,128.600 196.655 C 128.270 196.782,128.000 197.060,128.000 197.274 C 128.000 197.882,125.727 200.000,125.074 200.000 C 124.750 200.000,124.392 200.244,124.277 200.543 C 124.163 200.842,123.513 201.197,122.834 201.333 C 122.103 201.479,121.600 201.828,121.600 202.190 C 121.600 202.798,120.688 202.970,118.300 202.812 C 117.535 202.762,117.200 202.932,117.200 203.370 C 117.200 203.716,117.155 204.042,117.100 204.094 C 117.045 204.146,102.240 204.281,84.200 204.394 L 51.400 204.600 51.295 218.573 C 51.213 229.486,51.300 232.617,51.695 232.867 C 52.729 233.523,120.800 233.268,120.800 232.608 C 120.800 231.795,122.344 231.478,125.366 231.670 C 127.420 231.801,127.869 231.725,127.697 231.276 C 127.391 230.477,128.342 230.013,130.300 230.006 C 131.483 230.002,132.000 229.831,132.000 229.443 C 132.000 228.769,132.862 228.400,134.433 228.400 C 135.164 228.400,135.600 228.192,135.600 227.843 C 135.600 227.205,136.449 226.800,137.786 226.800 C 138.370 226.800,138.783 226.508,138.916 226.000 C 139.031 225.560,139.412 225.200,139.763 225.200 C 140.113 225.200,140.760 224.840,141.200 224.400 C 141.640 223.960,142.360 223.600,142.800 223.600 C 143.244 223.600,143.600 223.333,143.600 223.000 C 143.600 222.670,143.769 222.400,143.975 222.400 C 144.422 222.400,152.000 214.924,152.000 214.483 C 152.000 214.315,152.360 213.870,152.800 213.493 C 153.240 213.116,153.600 212.536,153.600 212.204 C 153.600 211.872,153.960 211.240,154.400 210.800 C 154.840 210.360,155.200 209.640,155.200 209.200 C 155.200 208.760,155.447 208.400,155.749 208.400 C 156.080 208.400,156.399 207.765,156.554 206.800 C 156.719 205.765,157.020 205.200,157.405 205.200 C 157.817 205.200,158.000 204.775,158.000 203.816 C 158.000 202.900,158.301 202.151,158.889 201.603 C 159.541 200.996,159.746 200.408,159.659 199.397 C 159.500 197.548,159.909 196.400,160.727 196.400 C 161.316 196.400,161.382 195.975,161.258 192.985 C 161.073 188.520,161.410 186.657,162.359 186.905 C 163.016 187.077,163.067 186.614,163.055 180.543 C 163.044 174.526,162.987 174.014,162.353 174.215 C 161.505 174.484,161.048 171.653,161.263 167.470 C 161.380 165.178,161.304 164.798,160.727 164.799 C 159.879 164.800,159.506 163.654,159.660 161.521 C 159.746 160.332,159.612 159.806,159.190 159.670 C 158.327 159.392,158.013 158.763,158.006 157.300 C 158.002 156.450,157.804 156.000,157.435 156.000 C 157.088 156.000,156.766 155.384,156.600 154.400 C 156.434 153.416,156.112 152.800,155.765 152.800 C 155.454 152.800,155.200 152.455,155.200 152.033 C 155.200 150.841,154.769 150.000,154.157 150.000 C 153.851 150.000,153.600 149.728,153.600 149.396 C 153.600 149.064,153.240 148.484,152.800 148.107 C 152.360 147.730,152.000 147.197,152.000 146.921 C 152.000 146.217,145.699 140.000,144.986 140.000 C 144.664 140.000,144.400 139.730,144.400 139.400 C 144.400 139.070,144.080 138.800,143.689 138.800 C 143.298 138.800,142.670 138.440,142.293 138.000 C 141.916 137.560,141.357 137.200,141.051 137.200 C 140.744 137.200,140.393 136.816,140.270 136.347 C 140.102 135.704,139.834 135.550,139.180 135.721 C 138.574 135.880,138.032 135.644,137.377 134.938 C 136.862 134.382,136.256 134.042,136.029 134.182 C 135.463 134.532,134.000 133.697,134.000 133.024 C 134.000 132.618,133.596 132.530,132.446 132.685 C 131.188 132.853,130.718 132.718,129.971 131.971 C 129.260 131.260,128.673 131.071,127.415 131.149 C 125.515 131.266,123.600 130.644,123.600 129.910 C 123.600 129.217,11.739 129.151,11.164 129.844 M246.223 129.501 C 183.490 129.581,166.980 129.706,166.729 130.101 C 166.148 131.017,166.390 131.600,167.353 131.600 C 167.970 131.600,168.381 131.882,168.516 132.400 C 168.631 132.840,169.012 133.200,169.363 133.200 C 169.713 133.200,170.000 133.464,170.000 133.786 C 170.000 134.108,170.360 134.565,170.800 134.800 C 171.240 135.035,171.600 135.582,171.600 136.014 C 171.600 136.446,171.867 136.800,172.192 136.800 C 172.518 136.800,172.896 137.244,173.032 137.786 C 173.168 138.328,173.622 138.880,174.040 139.013 C 174.458 139.145,174.800 139.505,174.800 139.813 C 174.800 140.120,175.160 140.565,175.600 140.800 C 176.068 141.050,176.400 141.638,176.400 142.214 C 176.400 142.831,176.628 143.200,177.010 143.200 C 177.365 143.200,177.718 143.691,177.855 144.374 C 177.984 145.020,178.340 145.645,178.645 145.762 C 178.950 145.879,179.200 146.326,179.200 146.755 C 179.200 147.926,179.624 148.800,180.192 148.800 C 180.473 148.800,180.811 149.511,180.954 150.400 C 181.115 151.409,181.423 152.000,181.787 152.000 C 182.416 152.000,183.057 154.460,182.614 155.177 C 182.469 155.413,182.644 155.719,183.005 155.857 C 183.366 155.996,183.823 156.535,184.021 157.055 L 184.380 158.000 254.490 158.004 C 327.056 158.009,327.406 158.015,327.719 159.213 C 327.883 159.837,328.226 159.904,330.313 159.714 C 332.426 159.523,332.808 159.600,333.448 160.348 C 333.959 160.945,334.641 161.200,335.726 161.200 C 336.938 161.200,337.320 161.374,337.484 162.000 C 337.640 162.597,338.030 162.800,339.020 162.800 C 339.967 162.800,340.414 163.015,340.585 163.552 C 340.722 163.985,341.348 164.410,342.059 164.552 C 343.017 164.743,343.250 164.966,343.098 165.549 C 342.945 166.130,343.073 166.254,343.668 166.098 C 344.090 165.988,344.743 166.193,345.118 166.555 C 345.493 166.917,346.745 168.089,347.900 169.160 C 349.055 170.231,350.000 171.308,350.000 171.554 C 350.000 171.799,350.241 172.000,350.536 172.000 C 350.830 172.000,351.277 172.450,351.527 173.000 C 351.778 173.550,352.167 174.000,352.391 174.000 C 352.616 174.000,352.800 174.444,352.800 174.986 C 352.800 175.578,353.135 176.151,353.640 176.422 C 354.271 176.759,354.438 177.156,354.312 178.017 C 354.177 178.938,354.306 179.186,354.972 179.282 C 355.629 179.376,355.800 179.689,355.800 180.800 C 355.800 181.861,355.994 182.252,356.600 182.416 C 357.248 182.591,357.423 183.029,357.521 184.716 C 357.607 186.199,357.807 186.800,358.213 186.800 C 359.078 186.800,359.324 188.464,359.061 192.525 C 358.931 194.546,358.923 195.975,359.045 195.700 C 360.153 193.199,361.339 198.804,360.544 202.782 C 360.340 203.799,360.128 204.022,359.516 203.862 C 358.782 203.670,358.758 203.833,359.022 207.205 C 359.346 211.344,359.093 212.800,358.051 212.800 C 357.411 212.800,357.342 213.057,357.512 214.824 C 357.686 216.636,357.617 216.870,356.853 217.070 C 356.163 217.251,356.000 217.597,356.000 218.884 C 356.000 220.138,355.831 220.519,355.200 220.684 C 354.636 220.832,354.400 221.230,354.400 222.033 C 354.400 222.762,354.113 223.326,353.600 223.600 C 353.160 223.835,352.800 224.399,352.800 224.852 C 352.800 225.338,352.473 225.760,352.000 225.884 C 351.551 226.001,351.200 226.430,351.200 226.859 C 351.200 227.280,350.930 227.729,350.600 227.855 C 350.270 227.982,350.000 228.255,350.000 228.462 C 350.000 228.952,346.152 232.800,345.662 232.800 C 345.455 232.800,345.182 233.070,345.055 233.400 C 344.929 233.730,344.353 234.000,343.775 234.000 C 343.060 234.000,342.658 234.256,342.515 234.804 C 342.399 235.247,341.889 235.713,341.381 235.840 C 340.873 235.968,340.361 236.326,340.241 236.636 C 340.122 236.946,339.571 237.200,339.016 237.200 C 338.440 237.200,337.792 237.543,337.507 238.000 C 337.138 238.591,336.574 238.800,335.350 238.800 C 334.030 238.800,333.651 238.962,333.484 239.600 C 333.302 240.298,332.938 240.400,330.637 240.400 C 328.610 240.400,328.000 240.533,328.000 240.975 C 328.000 241.963,325.525 242.037,296.200 241.916 L 267.800 241.800 267.600 210.120 C 267.471 189.723,267.258 178.326,267.000 178.120 C 266.780 177.944,260.300 177.890,252.600 178.000 L 238.600 178.200 238.472 179.100 C 238.402 179.595,238.171 180.000,237.959 180.000 C 237.748 180.000,237.411 179.595,237.212 179.100 C 236.993 178.555,236.841 196.311,236.825 224.100 C 236.801 268.043,236.831 270.000,237.520 270.000 C 237.916 270.000,238.427 270.187,238.655 270.415 C 238.938 270.698,253.060 270.797,283.035 270.725 C 307.216 270.668,328.734 270.661,330.853 270.711 C 334.308 270.792,334.726 270.724,334.900 270.061 C 335.127 269.194,337.264 268.731,339.423 269.081 C 340.641 269.279,340.878 269.189,341.069 268.456 C 341.292 267.604,341.871 267.429,344.086 267.543 C 344.817 267.581,345.319 267.326,345.620 266.762 C 345.989 266.074,346.371 265.949,347.771 266.062 C 349.214 266.179,349.446 266.096,349.295 265.518 C 349.094 264.753,350.663 264.166,351.984 264.512 C 352.547 264.659,352.789 264.483,352.878 263.861 C 352.946 263.382,353.351 262.944,353.800 262.861 C 354.240 262.780,354.922 262.373,355.316 261.957 C 355.709 261.541,356.378 261.200,356.802 261.200 C 357.225 261.200,357.765 260.840,358.000 260.400 C 358.235 259.960,358.782 259.600,359.214 259.600 C 359.646 259.600,360.000 259.353,360.000 259.050 C 360.000 258.748,360.540 258.392,361.200 258.260 C 361.875 258.125,362.400 257.765,362.400 257.437 C 362.400 257.116,362.760 256.740,363.200 256.600 C 363.641 256.460,364.187 255.998,364.414 255.573 C 364.642 255.148,364.993 254.800,365.193 254.800 C 365.734 254.800,367.600 252.981,367.600 252.454 C 367.600 252.204,367.887 252.000,368.237 252.000 C 368.588 252.000,368.969 251.640,369.084 251.200 C 369.199 250.760,369.559 250.400,369.884 250.400 C 370.209 250.400,370.569 250.040,370.684 249.600 C 370.799 249.160,371.142 248.800,371.447 248.800 C 371.751 248.800,372.000 248.592,372.000 248.339 C 372.000 248.085,372.707 247.225,373.570 246.428 C 374.434 245.631,375.263 244.488,375.413 243.889 C 375.564 243.290,375.937 242.800,376.243 242.800 C 376.550 242.800,376.800 242.446,376.800 242.014 C 376.800 241.582,377.145 241.043,377.567 240.817 C 377.990 240.591,378.451 239.880,378.592 239.237 C 378.733 238.593,379.108 237.967,379.424 237.846 C 379.741 237.724,380.000 237.243,380.000 236.775 C 380.000 236.262,380.317 235.842,380.800 235.716 C 381.406 235.557,381.600 235.170,381.600 234.116 C 381.600 233.062,381.794 232.675,382.400 232.516 C 383.044 232.347,383.200 231.970,383.200 230.580 C 383.200 229.205,383.363 228.802,384.000 228.600 C 384.645 228.395,384.800 227.995,384.800 226.536 C 384.800 225.062,384.949 224.686,385.600 224.516 C 386.285 224.337,386.400 223.970,386.400 221.973 C 386.400 220.206,386.563 219.549,387.070 219.265 C 387.607 218.964,387.746 218.243,387.770 215.630 C 387.803 212.090,388.437 210.906,389.550 212.307 C 390.043 212.928,390.067 212.897,389.778 212.000 C 389.601 211.450,389.419 205.330,389.375 198.400 C 389.304 187.451,389.213 185.784,388.681 185.677 C 387.927 185.526,387.413 182.290,387.790 180.061 C 388.018 178.710,387.944 178.479,387.226 178.291 C 386.387 178.071,386.171 177.160,386.369 174.670 C 386.437 173.821,386.253 173.487,385.630 173.324 C 384.937 173.142,384.800 172.793,384.800 171.200 C 384.800 169.630,384.659 169.256,384.000 169.084 C 383.389 168.924,383.200 168.538,383.200 167.452 C 383.200 166.438,382.970 165.905,382.400 165.600 C 381.883 165.323,381.600 164.762,381.600 164.013 C 381.600 163.205,381.358 162.777,380.800 162.600 C 380.242 162.423,380.000 161.995,380.000 161.187 C 380.000 160.438,379.717 159.877,379.200 159.600 C 378.760 159.365,378.400 158.915,378.400 158.600 C 378.400 158.285,378.040 157.835,377.600 157.600 C 377.160 157.365,376.800 156.771,376.800 156.282 C 376.800 155.793,376.440 155.168,376.000 154.893 C 375.560 154.618,375.200 154.125,375.200 153.797 C 375.200 153.468,374.930 153.200,374.600 153.200 C 374.270 153.200,374.000 153.047,374.000 152.859 C 374.000 152.374,371.672 150.000,371.197 150.000 C 370.978 150.000,370.800 149.844,370.800 149.654 C 370.800 149.197,366.856 145.200,366.405 145.200 C 366.212 145.200,365.940 144.840,365.800 144.400 C 365.660 143.960,365.283 143.600,364.960 143.600 C 364.638 143.600,364.269 143.323,364.139 142.985 C 364.009 142.647,363.340 142.102,362.651 141.774 C 360.468 140.735,359.475 140.077,359.112 139.429 C 358.919 139.083,358.326 138.800,357.794 138.800 C 357.238 138.800,356.647 138.461,356.400 138.000 C 356.120 137.476,355.562 137.200,354.786 137.200 C 354.003 137.200,353.600 136.998,353.600 136.605 C 353.600 136.222,353.042 135.920,352.035 135.759 C 350.969 135.589,350.407 135.268,350.272 134.754 C 350.118 134.167,349.705 134.000,348.400 134.000 C 347.101 134.000,346.681 133.832,346.530 133.253 C 346.367 132.631,346.051 132.538,344.640 132.697 C 342.570 132.930,341.209 131.963,342.086 130.883 C 342.531 130.336,342.492 130.292,341.800 130.559 C 339.204 131.562,335.600 131.262,335.600 130.044 C 335.600 129.387,335.157 129.328,330.500 129.362 C 327.695 129.383,289.770 129.445,246.223 129.501 M182.924 178.500 C 182.384 179.333,182.304 269.603,182.842 270.251 C 183.465 271.002,209.973 271.067,210.720 270.320 C 211.229 269.811,211.461 179.947,210.957 178.633 C 210.633 177.787,183.468 177.658,182.924 178.500 M37.856 271.322 C 38.704 272.172,36.139 272.388,25.200 272.388 C 13.675 272.388,11.359 272.165,12.800 271.197 C 13.518 270.714,37.368 270.833,37.856 271.322 M239.462 272.494 C 239.208 272.656,257.900 272.770,281.000 272.747 C 304.100 272.725,322.730 272.636,322.400 272.549 C 321.278 272.252,239.926 272.198,239.462 272.494 " stroke="none" fill="#003d71" fill-rule="evenodd"></path><path id="path3" d="M10.400 128.400 C 10.400 128.933,10.133 129.200,9.600 129.200 C 8.744 129.200,8.300 270.992,9.151 272.335 C 9.844 273.427,11.416 272.723,11.240 271.400 C 10.919 268.993,10.805 130.235,11.124 129.916 C 11.304 129.736,36.281 129.561,66.626 129.529 C 96.972 129.497,121.215 129.399,120.500 129.310 C 119.354 129.168,119.248 129.057,119.614 128.375 C 120.023 127.610,119.306 127.600,65.214 127.600 C 10.667 127.600,10.400 127.604,10.400 128.400 M163.452 128.500 C 163.053 129.990,163.164 130.441,163.900 130.318 C 164.396 130.234,164.591 130.456,164.571 131.076 C 164.555 131.558,164.645 131.942,164.771 131.929 C 165.754 131.827,166.338 132.119,166.516 132.800 C 166.631 133.240,166.991 133.600,167.316 133.600 C 167.641 133.600,168.001 133.960,168.116 134.400 C 168.231 134.840,168.600 135.200,168.936 135.200 C 169.271 135.200,169.660 135.560,169.800 136.000 C 169.940 136.440,170.312 136.800,170.627 136.800 C 170.942 136.800,171.200 137.160,171.200 137.600 C 171.200 138.133,171.467 138.400,172.000 138.400 C 172.758 138.400,173.030 139.156,172.830 140.700 C 172.794 140.975,172.938 141.200,173.149 141.200 C 173.360 141.200,173.611 140.975,173.707 140.700 C 173.802 140.425,174.011 140.785,174.172 141.500 C 174.377 142.414,174.692 142.800,175.232 142.800 C 175.733 142.800,176.000 143.078,176.000 143.600 C 176.000 144.133,176.267 144.400,176.800 144.400 C 177.467 144.400,177.600 144.667,177.600 146.000 C 177.600 147.333,177.733 147.600,178.400 147.600 C 179.334 147.600,179.533 146.103,178.645 145.762 C 178.340 145.645,177.984 145.020,177.855 144.374 C 177.718 143.691,177.365 143.200,177.010 143.200 C 176.628 143.200,176.400 142.831,176.400 142.214 C 176.400 141.638,176.068 141.050,175.600 140.800 C 175.160 140.565,174.800 140.120,174.800 139.813 C 174.800 139.505,174.458 139.145,174.040 139.013 C 173.622 138.880,173.168 138.328,173.032 137.786 C 172.896 137.244,172.518 136.800,172.192 136.800 C 171.867 136.800,171.600 136.446,171.600 136.014 C 171.600 135.582,171.240 135.035,170.800 134.800 C 170.360 134.565,170.000 134.129,170.000 133.833 C 170.000 133.536,169.640 133.199,169.200 133.084 C 168.760 132.969,168.400 132.588,168.400 132.237 C 168.400 131.824,168.048 131.600,167.400 131.600 C 166.396 131.600,166.140 131.029,166.728 130.102 C 166.978 129.709,184.352 129.591,250.022 129.540 C 295.660 129.504,332.488 129.399,331.861 129.307 C 330.968 129.176,330.766 128.973,330.924 128.370 C 331.122 127.612,329.829 127.600,247.409 127.600 L 163.693 127.600 163.452 128.500 M123.600 129.810 C 123.600 130.633,125.420 131.272,127.415 131.149 C 128.673 131.071,129.260 131.260,129.971 131.971 C 130.718 132.718,131.188 132.853,132.446 132.685 C 133.596 132.530,134.000 132.618,134.000 133.024 C 134.000 133.697,135.463 134.532,136.029 134.182 C 136.256 134.042,136.862 134.382,137.377 134.938 C 138.032 135.644,138.574 135.880,139.180 135.721 C 139.834 135.550,140.102 135.704,140.270 136.347 C 140.393 136.816,140.744 137.200,141.051 137.200 C 141.357 137.200,141.916 137.560,142.293 138.000 C 142.670 138.440,143.298 138.800,143.689 138.800 C 144.080 138.800,144.400 139.070,144.400 139.400 C 144.400 139.730,144.664 140.000,144.986 140.000 C 145.699 140.000,152.000 146.217,152.000 146.921 C 152.000 147.197,152.360 147.730,152.800 148.107 C 153.240 148.484,153.600 149.064,153.600 149.396 C 153.600 149.728,153.851 150.000,154.157 150.000 C 154.769 150.000,155.200 150.841,155.200 152.033 C 155.200 152.455,155.454 152.800,155.765 152.800 C 156.112 152.800,156.434 153.416,156.600 154.400 C 156.766 155.384,157.088 156.000,157.435 156.000 C 157.804 156.000,158.002 156.450,158.006 157.300 C 158.013 158.793,158.313 159.352,159.300 159.717 C 159.882 159.931,160.000 159.741,160.000 158.587 C 160.000 157.467,159.846 157.200,159.200 157.200 C 158.533 157.200,158.400 156.933,158.400 155.600 C 158.400 154.444,158.233 154.000,157.800 154.000 C 157.367 154.000,157.200 153.556,157.200 152.400 C 157.200 151.067,157.067 150.800,156.400 150.800 C 155.789 150.800,155.600 150.533,155.600 149.672 C 155.600 148.963,155.223 148.216,154.584 147.661 C 154.025 147.174,153.675 146.602,153.807 146.388 C 153.939 146.175,153.677 146.000,153.224 146.000 C 152.758 146.000,152.400 145.739,152.400 145.400 C 152.400 145.067,152.044 144.800,151.600 144.800 C 151.067 144.800,150.800 144.533,150.800 144.000 C 150.800 143.467,150.533 143.200,150.000 143.200 C 149.467 143.200,149.200 142.933,149.200 142.400 C 149.200 141.867,148.933 141.600,148.400 141.600 C 147.867 141.600,147.600 141.333,147.600 140.800 C 147.600 140.267,147.333 140.000,146.800 140.000 C 146.267 140.000,146.000 139.733,146.000 139.200 C 146.000 138.667,145.733 138.400,145.200 138.400 C 144.667 138.400,144.400 138.133,144.400 137.600 C 144.400 137.062,144.133 136.800,143.587 136.800 C 143.109 136.800,142.637 136.429,142.441 135.900 C 142.258 135.405,141.994 135.045,141.854 135.100 C 140.907 135.473,139.695 135.128,139.744 134.500 C 139.786 133.971,139.444 133.770,138.341 133.678 C 137.293 133.591,136.825 133.337,136.678 132.778 C 136.507 132.122,136.117 132.000,134.191 132.000 C 132.104 132.000,131.925 131.931,132.116 131.200 C 132.309 130.461,132.128 130.400,129.763 130.400 C 127.751 130.400,127.200 130.271,127.200 129.800 C 127.200 129.356,126.733 129.200,125.400 129.200 C 124.054 129.200,123.600 129.354,123.600 129.810 M335.600 129.953 C 335.600 131.109,339.029 131.647,341.000 130.800 C 341.709 130.495,341.675 130.453,340.700 130.428 C 340.001 130.410,339.600 130.181,339.600 129.800 C 339.600 129.347,339.111 129.200,337.600 129.200 C 335.908 129.200,335.600 129.316,335.600 129.953 M342.046 130.945 C 341.205 131.958,342.634 132.923,344.640 132.697 C 346.051 132.538,346.367 132.631,346.530 133.253 C 346.681 133.832,347.101 134.000,348.400 134.000 C 349.705 134.000,350.118 134.167,350.272 134.754 C 350.407 135.268,350.969 135.589,352.035 135.759 C 353.042 135.920,353.600 136.222,353.600 136.605 C 353.600 136.998,354.003 137.200,354.786 137.200 C 355.562 137.200,356.120 137.476,356.400 138.000 C 356.647 138.461,357.238 138.800,357.794 138.800 C 358.326 138.800,358.919 139.083,359.112 139.429 C 359.475 140.077,360.468 140.735,362.651 141.774 C 363.340 142.102,364.009 142.647,364.139 142.985 C 364.269 143.323,364.638 143.600,364.960 143.600 C 365.283 143.600,365.660 143.960,365.800 144.400 C 365.940 144.840,366.212 145.200,366.405 145.200 C 366.856 145.200,370.800 149.197,370.800 149.654 C 370.800 149.844,370.978 150.000,371.197 150.000 C 371.672 150.000,374.000 152.374,374.000 152.859 C 374.000 153.047,374.270 153.200,374.600 153.200 C 374.930 153.200,375.200 153.468,375.200 153.797 C 375.200 154.125,375.560 154.618,376.000 154.893 C 376.440 155.168,376.800 155.793,376.800 156.282 C 376.800 156.771,377.160 157.365,377.600 157.600 C 378.040 157.835,378.400 158.285,378.400 158.600 C 378.400 158.915,378.760 159.365,379.200 159.600 C 379.717 159.877,380.000 160.438,380.000 161.187 C 380.000 161.995,380.242 162.423,380.800 162.600 C 381.358 162.777,381.600 163.205,381.600 164.013 C 381.600 164.762,381.883 165.323,382.400 165.600 C 382.970 165.905,383.200 166.438,383.200 167.452 C 383.200 168.538,383.389 168.924,384.000 169.084 C 384.659 169.256,384.800 169.630,384.800 171.200 C 384.800 172.793,384.937 173.142,385.630 173.324 C 386.253 173.487,386.437 173.821,386.369 174.670 C 386.171 177.160,386.387 178.071,387.226 178.291 C 387.944 178.479,388.018 178.710,387.790 180.061 C 387.399 182.373,387.925 185.527,388.727 185.681 C 389.322 185.796,389.376 186.853,389.289 196.604 C 389.236 202.542,389.352 208.390,389.546 209.600 C 389.898 211.785,389.901 211.777,389.950 208.273 C 389.997 204.940,390.044 204.760,390.799 205.000 C 391.578 205.247,391.597 205.071,391.580 197.976 C 391.564 191.712,391.486 190.804,391.014 191.449 C 390.121 192.670,389.982 191.993,389.947 186.249 C 389.918 181.415,389.839 180.797,389.257 180.892 C 388.703 180.983,388.582 180.514,388.483 177.900 C 388.379 175.129,388.283 174.800,387.583 174.800 C 386.910 174.800,386.800 174.519,386.800 172.800 C 386.800 171.470,386.633 170.798,386.300 170.794 C 385.960 170.790,385.993 170.650,386.400 170.359 C 386.882 170.015,386.823 169.969,386.100 170.128 C 385.273 170.309,385.200 170.182,385.200 168.563 C 385.200 167.067,385.079 166.800,384.400 166.800 C 383.721 166.800,383.600 166.533,383.600 165.037 C 383.600 163.472,383.511 163.298,382.800 163.484 C 381.905 163.718,381.633 162.615,382.500 162.265 C 382.900 162.104,382.900 162.057,382.500 162.032 C 382.225 162.014,382.000 161.640,382.000 161.200 C 382.000 160.667,381.733 160.400,381.200 160.400 C 380.667 160.400,380.400 160.133,380.400 159.600 C 380.400 159.067,380.133 158.800,379.600 158.800 C 378.933 158.800,378.800 158.533,378.800 157.200 C 378.800 155.867,378.667 155.600,378.000 155.600 C 377.467 155.600,377.200 155.333,377.200 154.800 C 377.200 154.267,376.933 154.000,376.400 154.000 C 375.733 154.000,375.600 153.733,375.600 152.400 C 375.600 151.520,375.428 150.800,375.218 150.800 C 374.718 150.800,372.985 149.058,372.671 148.240 C 372.536 147.888,372.149 147.600,371.813 147.600 C 371.476 147.600,371.200 147.342,371.200 147.027 C 371.200 146.712,370.840 146.340,370.400 146.200 C 369.960 146.060,369.600 145.688,369.600 145.373 C 369.600 145.058,369.240 144.800,368.800 144.800 C 368.267 144.800,368.000 144.533,368.000 144.000 C 368.000 143.467,367.733 143.200,367.200 143.200 C 366.667 143.200,366.400 142.933,366.400 142.400 C 366.400 141.960,366.199 141.600,365.953 141.600 C 365.704 141.600,365.599 141.953,365.716 142.400 C 365.852 142.920,365.728 143.200,365.363 143.200 C 365.035 143.200,364.800 142.798,364.800 142.237 C 364.800 141.448,364.644 141.316,363.937 141.501 C 363.209 141.691,363.109 141.591,363.299 140.863 C 363.484 140.156,363.352 140.000,362.563 140.000 C 361.867 140.000,361.600 139.778,361.600 139.200 C 361.600 138.533,361.333 138.400,360.000 138.400 C 358.667 138.400,358.400 138.267,358.400 137.600 C 358.400 136.958,358.133 136.800,357.047 136.800 C 356.030 136.800,355.641 136.601,355.484 136.000 C 355.324 135.387,354.938 135.200,353.837 135.200 C 352.667 135.200,352.400 135.052,352.400 134.400 C 352.400 133.733,352.133 133.600,350.800 133.600 C 349.467 133.600,349.200 133.467,349.200 132.800 C 349.200 132.119,348.933 132.000,347.400 132.000 C 345.932 132.000,345.600 131.867,345.600 131.278 C 345.600 130.346,342.764 130.080,342.046 130.945 M179.232 149.300 C 179.210 150.320,179.376 150.800,179.749 150.800 C 180.129 150.800,180.310 151.361,180.335 152.615 C 180.378 154.744,180.611 155.247,181.413 154.940 C 181.877 154.762,182.000 155.101,182.000 156.557 C 182.000 158.256,182.078 158.400,183.000 158.400 C 183.733 158.400,184.000 158.613,184.000 159.200 C 184.000 159.997,184.267 160.000,255.963 160.000 C 326.239 160.000,327.920 159.982,327.728 159.247 C 327.404 158.009,327.397 158.009,254.490 158.004 L 184.380 158.000 184.021 157.055 C 183.823 156.535,183.366 155.996,183.005 155.857 C 182.644 155.719,182.469 155.413,182.614 155.177 C 183.057 154.460,182.416 152.000,181.787 152.000 C 181.423 152.000,181.115 151.409,180.954 150.400 C 180.809 149.493,180.474 148.800,180.182 148.800 C 179.899 148.800,179.576 148.575,179.465 148.300 C 179.354 148.025,179.249 148.475,179.232 149.300 M40.268 158.501 C 39.628 158.969,39.584 162.570,39.596 214.468 C 39.607 263.411,39.537 270.006,39.004 270.539 C 38.100 271.443,38.274 272.353,39.405 272.637 C 40.765 272.978,41.665 272.150,41.584 270.631 C 41.548 269.954,41.537 244.785,41.559 214.700 L 41.600 160.000 78.800 160.000 C 114.907 160.000,116.000 159.978,116.000 159.250 C 116.000 158.730,115.617 158.423,114.750 158.250 C 112.140 157.728,40.998 157.967,40.268 158.501 M117.700 159.876 C 118.085 159.976,118.400 160.405,118.400 160.829 C 118.400 161.443,118.684 161.600,119.800 161.600 C 121.072 161.600,121.405 161.899,121.247 162.900 C 121.221 163.065,121.335 163.179,121.500 163.153 C 123.121 162.897,124.400 163.270,124.400 164.000 C 124.400 164.533,124.667 164.800,125.200 164.800 C 125.733 164.800,126.000 165.067,126.000 165.600 C 126.000 166.133,126.267 166.400,126.800 166.400 C 127.378 166.400,127.600 166.667,127.600 167.363 C 127.600 168.128,127.764 168.282,128.400 168.116 C 129.104 167.932,129.200 168.104,129.200 169.541 C 129.200 170.829,129.327 171.126,129.800 170.945 C 130.286 170.758,130.400 171.109,130.400 172.784 C 130.400 174.672,130.470 174.832,131.200 174.600 C 131.928 174.369,132.005 174.538,132.051 176.473 L 132.102 178.600 132.493 176.050 C 132.915 173.294,132.506 171.600,131.419 171.600 C 130.971 171.600,130.879 171.307,131.053 170.437 C 131.243 169.487,131.094 169.149,130.243 168.591 C 129.602 168.171,129.200 167.541,129.200 166.954 C 129.200 166.373,128.966 166.000,128.600 166.000 C 128.270 166.000,128.000 165.806,128.000 165.569 C 128.000 164.815,125.694 162.800,124.831 162.800 C 124.364 162.800,124.000 162.541,124.000 162.208 C 124.000 161.882,123.505 161.496,122.900 161.351 C 122.295 161.206,121.478 160.753,121.084 160.344 C 120.590 159.830,119.848 159.614,118.684 159.646 C 117.758 159.672,117.315 159.775,117.700 159.876 M329.900 159.882 C 330.463 159.991,330.800 160.345,330.800 160.828 C 330.800 161.495,331.093 161.600,332.953 161.600 C 334.770 161.600,335.139 161.725,335.316 162.400 C 335.476 163.013,335.862 163.200,336.963 163.200 C 338.393 163.200,339.015 164.085,337.900 164.535 C 337.625 164.646,338.345 164.751,339.500 164.768 C 341.348 164.796,341.600 164.900,341.600 165.629 C 341.600 166.657,342.924 166.537,343.126 165.491 C 343.223 164.986,342.922 164.724,342.042 164.548 C 341.346 164.409,340.721 163.982,340.585 163.552 C 340.414 163.015,339.967 162.800,339.020 162.800 C 338.030 162.800,337.640 162.597,337.484 162.000 C 337.320 161.374,336.938 161.200,335.726 161.200 C 334.673 161.200,333.959 160.944,333.493 160.400 C 332.970 159.789,332.358 159.613,330.904 159.654 C 329.857 159.684,329.405 159.787,329.900 159.882 M159.654 161.867 C 159.584 164.015,159.902 164.800,160.843 164.800 C 161.457 164.800,161.600 164.504,161.600 163.237 C 161.600 161.894,161.492 161.703,160.833 161.876 C 160.266 162.024,160.019 161.832,159.887 161.138 C 159.781 160.578,159.687 160.872,159.654 161.867 M161.369 169.496 C 161.466 174.302,161.529 174.556,162.543 174.167 C 163.614 173.756,163.503 168.000,162.424 168.000 C 161.827 168.000,161.606 167.654,161.464 166.500 C 161.362 165.675,161.320 167.023,161.369 169.496 M343.200 167.000 C 343.200 167.733,343.413 168.000,344.000 168.000 C 344.533 168.000,344.800 168.267,344.800 168.800 C 344.800 169.240,344.963 169.600,345.163 169.600 C 345.636 169.600,350.800 174.764,350.800 175.237 C 350.800 175.437,351.160 175.600,351.600 175.600 C 352.267 175.600,352.400 175.867,352.400 177.200 C 352.400 178.640,352.500 178.800,353.400 178.800 C 354.678 178.800,354.824 177.055,353.600 176.400 C 353.132 176.150,352.800 175.562,352.800 174.986 C 352.800 174.444,352.616 174.000,352.391 174.000 C 352.167 174.000,351.778 173.550,351.527 173.000 C 351.277 172.450,350.830 172.000,350.536 172.000 C 350.241 172.000,350.000 171.799,350.000 171.554 C 350.000 171.308,349.055 170.231,347.900 169.160 C 346.745 168.089,345.515 166.940,345.166 166.606 C 344.169 165.652,343.200 165.846,343.200 167.000 M347.600 170.200 C 347.600 170.530,347.439 170.800,347.243 170.800 C 347.046 170.800,346.782 170.530,346.655 170.200 C 346.515 169.835,346.655 169.600,347.013 169.600 C 347.336 169.600,347.600 169.870,347.600 170.200 M180.498 225.100 L 180.600 272.600 196.245 272.705 L 211.891 272.809 211.699 271.805 C 211.543 270.988,211.665 270.800,212.353 270.800 L 213.200 270.800 213.200 224.450 L 213.200 178.100 211.950 177.850 C 211.263 177.713,203.882 177.600,195.548 177.600 L 180.397 177.600 180.498 225.100 M236.800 177.774 C 236.800 179.402,238.264 180.563,238.472 179.100 L 238.600 178.200 252.400 177.992 L 266.200 177.784 251.500 177.692 C 243.415 177.641,236.800 177.678,236.800 177.774 M267.059 178.072 C 267.246 178.362,267.490 192.820,267.600 210.200 L 267.800 241.800 296.200 241.916 C 325.525 242.037,328.000 241.963,328.000 240.975 C 328.000 240.533,328.610 240.400,330.637 240.400 C 332.938 240.400,333.302 240.298,333.484 239.600 C 333.651 238.962,334.030 238.800,335.350 238.800 C 336.574 238.800,337.138 238.591,337.507 238.000 C 337.792 237.543,338.440 237.200,339.016 237.200 C 339.571 237.200,340.122 236.946,340.241 236.636 C 340.361 236.326,340.873 235.968,341.381 235.840 C 341.889 235.713,342.399 235.247,342.515 234.804 C 342.658 234.256,343.060 234.000,343.775 234.000 C 344.353 234.000,344.929 233.730,345.055 233.400 C 345.182 233.070,345.455 232.800,345.662 232.800 C 346.152 232.800,350.000 228.952,350.000 228.462 C 350.000 228.255,350.270 227.982,350.600 227.855 C 350.930 227.729,351.200 227.280,351.200 226.859 C 351.200 226.430,351.551 226.001,352.000 225.884 C 352.473 225.760,352.800 225.338,352.800 224.852 C 352.800 224.399,353.160 223.835,353.600 223.600 C 354.113 223.326,354.400 222.762,354.400 222.033 C 354.400 221.230,354.636 220.832,355.200 220.684 C 355.831 220.519,356.000 220.138,356.000 218.884 C 356.000 217.630,356.169 217.249,356.800 217.084 C 357.451 216.914,357.595 216.550,357.575 215.137 C 357.553 213.638,357.498 213.529,357.172 214.342 C 356.931 214.945,356.580 215.201,356.197 215.054 C 355.731 214.875,355.600 215.164,355.600 216.370 C 355.600 217.350,355.388 217.996,355.020 218.137 C 354.614 218.293,354.506 218.156,354.658 217.680 C 354.843 217.100,354.812 217.089,354.444 217.600 C 354.206 217.930,354.009 218.875,354.006 219.700 C 354.001 220.931,353.857 221.200,353.200 221.200 C 352.533 221.200,352.400 221.467,352.400 222.800 C 352.400 224.133,352.267 224.400,351.600 224.400 C 351.067 224.400,350.800 224.667,350.800 225.200 C 350.800 225.665,350.533 226.000,350.163 226.000 C 349.812 226.000,349.431 226.360,349.316 226.800 C 349.201 227.240,348.870 227.600,348.580 227.600 C 348.291 227.600,347.940 227.960,347.800 228.400 C 347.660 228.840,347.354 229.200,347.119 229.200 C 346.605 229.200,344.800 231.084,344.800 231.621 C 344.800 231.829,344.440 232.000,344.000 232.000 C 343.475 232.000,343.200 232.267,343.200 232.776 C 343.200 233.380,342.875 233.579,341.731 233.676 C 340.433 233.786,339.223 234.800,340.390 234.800 C 340.642 234.800,340.719 234.592,340.562 234.338 C 340.385 234.052,340.452 233.985,340.738 234.162 C 341.628 234.712,341.187 235.200,339.800 235.200 C 338.667 235.200,338.400 235.352,338.400 236.000 C 338.400 236.667,338.133 236.800,336.800 236.800 C 335.467 236.800,335.200 236.933,335.200 237.600 C 335.200 238.303,334.933 238.400,333.000 238.400 C 331.067 238.400,330.800 238.497,330.800 239.200 C 330.800 239.850,330.533 240.000,329.376 240.000 C 328.354 240.000,328.032 239.859,328.235 239.500 C 328.461 239.100,328.410 239.100,327.979 239.500 C 327.558 239.890,321.103 240.000,298.522 240.000 L 269.605 240.000 269.502 208.900 L 269.400 177.800 268.059 177.672 C 267.024 177.572,266.796 177.664,267.059 178.072 M162.928 180.400 C 162.928 181.830,163.001 182.415,163.089 181.700 C 163.178 180.985,163.178 179.815,163.089 179.100 C 163.001 178.385,162.928 178.970,162.928 180.400 M210.957 178.633 C 211.461 179.947,211.229 269.811,210.720 270.320 C 209.973 271.067,183.465 271.002,182.842 270.251 C 182.304 269.603,182.384 179.333,182.924 178.500 C 183.468 177.658,210.633 177.787,210.957 178.633 M164.200 180.600 C 164.200 181.768,164.335 182.640,164.500 182.538 C 164.665 182.436,164.800 181.564,164.800 180.600 C 164.800 179.636,164.665 178.764,164.500 178.662 C 164.335 178.560,164.200 179.432,164.200 180.600 M354.000 180.172 C 354.000 180.737,354.191 181.200,354.424 181.200 C 354.657 181.200,354.743 181.369,354.615 181.576 C 354.487 181.782,354.755 181.924,355.210 181.889 C 356.449 181.796,356.171 179.453,354.900 179.272 C 354.167 179.168,354.000 179.335,354.000 180.172 M132.178 180.545 C 131.828 181.940,132.324 183.273,133.134 183.117 C 134.098 182.932,134.081 179.865,133.114 179.679 C 132.659 179.591,132.344 179.883,132.178 180.545 M355.600 183.735 C 355.600 184.928,355.713 185.095,356.400 184.916 C 357.148 184.720,357.200 184.904,357.200 187.730 C 357.200 189.583,357.379 190.863,357.662 191.038 C 357.948 191.215,358.015 191.148,357.838 190.862 C 357.671 190.591,357.801 190.400,358.151 190.400 C 358.526 190.400,358.809 190.885,358.911 191.700 C 359.001 192.430,359.100 191.919,359.136 190.533 C 359.208 187.758,358.962 186.800,358.178 186.800 C 357.813 186.800,357.603 186.129,357.521 184.700 C 357.367 182.033,355.600 181.145,355.600 183.735 M132.048 186.057 C 131.999 187.948,131.040 189.077,130.671 187.678 C 130.573 187.305,130.472 188.035,130.446 189.300 C 130.411 191.057,130.258 191.600,129.800 191.600 C 129.384 191.600,129.200 192.018,129.200 192.963 C 129.200 194.121,129.318 194.294,129.987 194.119 C 130.889 193.883,131.338 192.825,130.957 191.832 C 130.772 191.350,130.945 191.087,131.552 190.928 C 132.683 190.633,132.937 189.435,132.476 186.563 L 132.097 184.200 132.048 186.057 M161.457 187.681 C 161.322 188.186,161.239 190.220,161.273 192.200 C 161.307 194.180,161.406 195.107,161.494 194.260 C 161.629 192.958,161.775 192.752,162.443 192.927 C 163.185 193.121,163.226 192.951,163.116 190.071 C 162.995 186.885,162.039 185.507,161.457 187.681 M127.600 195.400 C 127.600 195.730,127.313 196.000,126.963 196.000 C 126.612 196.000,126.233 196.354,126.119 196.787 C 126.006 197.219,125.573 197.682,125.157 197.814 C 124.741 197.946,124.400 198.414,124.400 198.854 C 124.400 199.472,124.218 199.596,123.600 199.400 C 122.985 199.205,122.800 199.328,122.800 199.933 C 122.800 200.716,122.354 200.823,119.000 200.842 C 118.255 200.846,118.247 200.882,118.894 201.363 C 120.229 202.356,118.826 202.400,85.533 202.400 C 56.503 202.400,52.000 202.478,52.000 202.980 C 52.000 203.299,51.724 203.715,51.386 203.904 C 50.847 204.205,50.786 206.106,50.886 219.324 C 50.949 227.616,50.854 234.400,50.676 234.400 C 50.498 234.400,50.464 234.580,50.600 234.800 C 50.762 235.062,61.870 235.189,82.724 235.168 C 100.256 235.151,114.385 235.049,114.122 234.943 C 112.150 234.140,114.371 233.600,119.643 233.600 C 124.870 233.600,125.200 233.554,125.200 232.827 C 125.200 232.290,125.537 232.002,126.300 231.887 C 126.905 231.795,126.200 231.693,124.733 231.660 C 121.740 231.593,120.800 231.828,120.800 232.643 C 120.800 233.272,52.680 233.493,51.695 232.867 C 51.300 232.617,51.213 229.486,51.295 218.573 L 51.400 204.600 84.200 204.394 C 102.240 204.281,117.045 204.146,117.100 204.094 C 117.155 204.042,117.200 203.716,117.200 203.370 C 117.200 202.932,117.535 202.762,118.300 202.812 C 120.688 202.970,121.600 202.798,121.600 202.190 C 121.600 201.828,122.103 201.479,122.834 201.333 C 123.513 201.197,124.163 200.842,124.277 200.543 C 124.392 200.244,124.750 200.000,125.074 200.000 C 125.727 200.000,128.000 197.882,128.000 197.274 C 128.000 197.060,128.270 196.782,128.600 196.655 C 129.522 196.302,129.360 194.800,128.400 194.800 C 127.956 194.800,127.600 195.067,127.600 195.400 M359.043 195.833 C 358.484 197.288,358.779 203.617,359.417 203.862 C 360.274 204.191,360.392 203.986,360.663 201.694 C 361.144 197.641,359.973 193.408,359.043 195.833 M159.843 197.033 C 159.709 197.381,159.621 198.326,159.646 199.133 C 159.672 199.940,159.778 200.268,159.883 199.863 C 160.011 199.368,160.324 199.191,160.836 199.325 C 161.492 199.497,161.600 199.303,161.600 197.963 C 161.600 196.305,160.371 195.655,159.843 197.033 M158.875 201.616 C 158.301 202.151,158.000 202.907,158.000 203.816 C 158.000 204.775,157.817 205.200,157.405 205.200 C 157.020 205.200,156.719 205.765,156.554 206.800 C 156.399 207.765,156.080 208.400,155.749 208.400 C 155.447 208.400,155.200 208.760,155.200 209.200 C 155.200 209.640,154.840 210.360,154.400 210.800 C 153.960 211.240,153.600 211.872,153.600 212.204 C 153.600 212.536,153.240 213.116,152.800 213.493 C 152.360 213.870,152.000 214.315,152.000 214.483 C 152.000 214.924,144.422 222.400,143.975 222.400 C 143.769 222.400,143.600 222.670,143.600 223.000 C 143.600 223.333,143.244 223.600,142.800 223.600 C 142.360 223.600,141.640 223.960,141.200 224.400 C 140.760 224.840,140.113 225.200,139.763 225.200 C 139.412 225.200,139.031 225.560,138.916 226.000 C 138.783 226.508,138.370 226.800,137.786 226.800 C 136.449 226.800,135.600 227.205,135.600 227.843 C 135.600 228.192,135.164 228.400,134.433 228.400 C 132.862 228.400,132.000 228.769,132.000 229.443 C 132.000 229.831,131.483 230.002,130.300 230.006 C 128.280 230.013,127.392 230.481,127.729 231.360 C 128.112 232.359,130.400 232.222,130.400 231.200 C 130.400 230.489,130.667 230.400,132.800 230.400 C 134.933 230.400,135.200 230.311,135.200 229.600 C 135.200 228.952,135.467 228.800,136.600 228.800 C 137.733 228.800,138.000 228.648,138.000 228.000 C 138.000 227.383,138.267 227.200,139.167 227.200 C 140.738 227.200,141.600 226.831,141.600 226.157 C 141.600 225.807,142.038 225.600,142.776 225.600 C 143.423 225.600,144.076 225.401,144.226 225.157 C 144.411 224.859,144.222 224.803,143.650 224.984 C 143.146 225.144,142.800 225.080,142.800 224.827 C 142.800 224.592,143.385 224.386,144.100 224.368 C 144.815 224.351,145.175 224.246,144.900 224.135 C 143.785 223.685,144.407 222.800,145.837 222.800 C 146.915 222.800,147.325 222.609,147.474 222.037 C 147.584 221.617,148.017 221.184,148.437 221.074 C 148.857 220.965,149.200 220.609,149.200 220.284 C 149.200 219.959,149.560 219.599,150.000 219.484 C 150.440 219.369,150.800 219.009,150.800 218.684 C 150.800 218.359,151.160 217.999,151.600 217.884 C 152.213 217.724,152.400 217.338,152.400 216.237 C 152.400 215.067,152.548 214.800,153.200 214.800 C 153.717 214.800,154.000 214.533,154.000 214.047 C 154.000 213.630,154.357 213.200,154.800 213.084 C 155.413 212.924,155.600 212.538,155.600 211.437 C 155.600 210.270,155.749 210.000,156.395 210.000 C 156.908 210.000,157.170 209.752,157.132 209.300 C 157.011 207.853,157.218 207.200,157.800 207.200 C 158.233 207.200,158.400 206.756,158.400 205.600 C 158.400 204.267,158.533 204.000,159.200 204.000 C 159.867 204.000,160.000 203.733,160.000 202.400 C 160.000 200.540,160.017 200.552,158.875 201.616 M358.874 207.900 C 358.817 208.909,358.621 209.200,358.000 209.200 C 357.319 209.200,357.200 209.467,357.200 211.000 C 357.200 212.528,357.320 212.800,357.992 212.800 C 358.983 212.800,359.296 211.663,359.098 208.779 C 359.015 207.580,358.915 207.185,358.874 207.900 M388.400 211.993 C 387.951 212.275,387.793 213.192,387.770 215.630 C 387.746 218.243,387.607 218.964,387.070 219.265 C 386.563 219.549,386.400 220.206,386.400 221.973 C 386.400 223.970,386.285 224.337,385.600 224.516 C 384.949 224.686,384.800 225.062,384.800 226.536 C 384.800 227.995,384.645 228.395,384.000 228.600 C 383.363 228.802,383.200 229.205,383.200 230.580 C 383.200 231.970,383.044 232.347,382.400 232.516 C 381.794 232.675,381.600 233.062,381.600 234.116 C 381.600 235.170,381.406 235.557,380.800 235.716 C 380.317 235.842,380.000 236.262,380.000 236.775 C 380.000 237.243,379.741 237.724,379.424 237.846 C 379.108 237.967,378.733 238.593,378.592 239.237 C 378.451 239.880,377.990 240.591,377.567 240.817 C 377.145 241.043,376.800 241.582,376.800 242.014 C 376.800 242.446,376.550 242.800,376.243 242.800 C 375.937 242.800,375.564 243.290,375.413 243.889 C 375.263 244.488,374.434 245.631,373.570 246.428 C 372.707 247.225,372.000 248.085,372.000 248.339 C 372.000 248.592,371.730 248.800,371.400 248.800 C 371.070 248.800,370.800 249.087,370.800 249.437 C 370.800 249.788,370.440 250.169,370.000 250.284 C 369.560 250.399,369.200 250.759,369.200 251.084 C 369.200 251.409,368.840 251.769,368.400 251.884 C 367.960 251.999,367.600 252.277,367.600 252.501 C 367.600 252.992,365.708 254.800,365.193 254.800 C 364.993 254.800,364.642 255.148,364.414 255.573 C 364.187 255.998,363.641 256.460,363.200 256.600 C 362.760 256.740,362.400 257.116,362.400 257.437 C 362.400 257.765,361.875 258.125,361.200 258.260 C 360.540 258.392,360.000 258.748,360.000 259.050 C 360.000 259.353,359.646 259.600,359.214 259.600 C 358.782 259.600,358.235 259.960,358.000 260.400 C 357.765 260.840,357.225 261.200,356.802 261.200 C 356.378 261.200,355.709 261.541,355.316 261.957 C 354.922 262.373,354.240 262.780,353.800 262.861 C 353.336 262.946,352.946 263.384,352.872 263.904 C 352.695 265.143,354.993 265.233,355.316 264.000 C 355.443 263.515,355.862 263.200,356.380 263.200 C 356.972 263.200,357.199 262.985,357.118 262.500 C 357.026 261.954,357.329 261.773,358.500 261.676 C 359.675 261.579,360.000 261.384,360.000 260.776 C 360.000 260.267,360.275 260.000,360.800 260.000 C 361.333 260.000,361.600 259.733,361.600 259.200 C 361.600 258.533,361.867 258.400,363.200 258.400 C 364.322 258.400,364.800 258.229,364.800 257.827 C 364.800 257.512,365.160 257.140,365.600 257.000 C 366.040 256.860,366.400 256.398,366.400 255.973 C 366.400 255.546,366.674 255.200,367.013 255.200 C 367.349 255.200,367.722 254.948,367.840 254.639 C 367.959 254.331,368.403 253.988,368.828 253.877 C 369.252 253.766,369.600 253.388,369.600 253.037 C 369.600 252.687,369.870 252.400,370.200 252.400 C 370.533 252.400,370.800 252.044,370.800 251.600 C 370.800 251.160,371.064 250.800,371.386 250.800 C 371.708 250.800,372.165 250.440,372.400 250.000 C 372.635 249.560,373.080 249.200,373.387 249.200 C 373.695 249.200,374.060 248.840,374.200 248.400 C 374.340 247.960,374.712 247.600,375.027 247.600 C 375.429 247.600,375.600 247.122,375.600 246.000 C 375.600 244.667,375.733 244.400,376.400 244.400 C 376.933 244.400,377.200 244.133,377.200 243.600 C 377.200 243.067,377.467 242.800,378.000 242.800 C 378.777 242.800,378.981 242.277,378.821 240.700 C 378.774 240.237,379.029 240.000,379.575 240.000 C 380.146 240.000,380.400 239.742,380.400 239.163 C 380.400 238.662,380.721 238.241,381.200 238.116 C 381.794 237.961,382.000 237.570,382.000 236.600 C 382.000 235.630,382.206 235.239,382.800 235.084 C 383.414 234.923,383.600 234.538,383.600 233.425 C 383.600 232.294,383.799 231.894,384.500 231.612 C 385.022 231.403,385.148 231.237,384.800 231.219 C 384.326 231.194,384.310 231.118,384.724 230.855 C 385.013 230.672,385.259 229.775,385.271 228.861 C 385.288 227.662,385.461 227.200,385.894 227.200 C 386.297 227.200,386.425 227.463,386.284 228.001 C 386.169 228.441,386.238 228.700,386.437 228.577 C 386.637 228.454,386.800 227.528,386.800 226.520 C 386.800 225.250,387.015 224.521,387.500 224.143 C 388.167 223.624,388.167 223.610,387.500 223.842 C 386.978 224.024,386.800 223.872,386.800 223.243 C 386.800 222.677,387.054 222.400,387.572 222.400 C 388.262 222.400,388.345 222.096,388.353 219.552 C 388.363 216.403,388.496 216.050,389.390 216.792 C 389.924 217.235,390.000 217.027,390.000 215.125 C 390.000 212.674,389.347 211.396,388.400 211.993 M349.700 264.665 C 349.425 264.776,349.200 265.122,349.200 265.433 C 349.200 265.827,348.716 266.000,347.614 266.000 C 346.438 266.000,345.918 266.207,345.600 266.800 C 345.318 267.327,344.802 267.580,344.086 267.543 C 341.871 267.429,341.292 267.604,341.069 268.456 C 340.878 269.189,340.641 269.279,339.423 269.081 C 337.264 268.731,335.127 269.194,334.900 270.061 C 334.726 270.724,334.308 270.792,330.853 270.711 C 328.734 270.661,307.216 270.668,283.035 270.725 C 253.060 270.797,238.938 270.698,238.655 270.415 C 237.856 269.616,236.800 269.941,236.800 270.986 C 236.800 272.086,238.089 273.005,239.093 272.620 C 239.821 272.340,318.859 272.405,326.500 272.691 C 330.066 272.825,331.600 272.750,331.600 272.441 C 331.600 272.199,331.398 272.045,331.150 272.100 C 330.903 272.155,330.618 271.975,330.517 271.700 C 330.331 271.193,333.152 270.973,337.126 271.185 C 338.609 271.264,338.835 271.172,338.726 270.538 C 338.615 269.885,338.936 269.786,341.513 269.682 C 344.000 269.582,344.410 269.465,344.313 268.882 C 344.224 268.346,344.586 268.157,346.000 268.000 C 347.490 267.834,347.778 267.670,347.670 267.045 C 347.568 266.456,347.721 266.338,348.370 266.508 C 348.826 266.627,349.200 266.607,349.200 266.463 C 349.200 266.318,349.875 266.200,350.700 266.200 C 351.951 266.200,352.221 266.051,352.328 265.300 C 352.456 264.398,351.146 264.081,349.700 264.665 M12.800 271.197 C 11.359 272.165,13.675 272.388,25.200 272.388 C 36.139 272.388,38.704 272.172,37.856 271.322 C 37.368 270.833,13.518 270.714,12.800 271.197 " stroke="none" fill="#5581a0" fill-rule="evenodd"></path><path id="path4" d="M176.243 144.969 C 176.482 145.590,177.600 146.165,177.600 145.667 C 177.600 145.498,177.384 145.144,177.120 144.880 C 176.465 144.225,175.977 144.275,176.243 144.969 " stroke="none" fill="#55ffff" fill-rule="evenodd"></path></g></svg>